<?xml version="1.0" encoding="UTF-8"?>
<svg id="katman_1" data-name="katman 1" xmlns="http://www.w3.org/2000/svg" version="1.1" viewBox="0 0 841.89 595.28">
  <defs>
    <style>
      .cls-1 {
        fill: #000;
      }

      .cls-1, .cls-2, .cls-3 {
        stroke-width: 0px;
      }

      .cls-2 {
        fill: #1d1d1b;
        fill-rule: evenodd;
      }

      .cls-3 {
        fill: #fff;
      }
    </style>
  </defs>
  <path class="cls-1" d="M191.87,303.11c.31.25.68.42,1.08.51-.13,1.78-.33,3.56-.61,5.31l-.29-.05c-.47,2.14-1.37,4.59-2.43,6.98,1.2-4.09,1.97-8.36,2.25-12.75Z"/>
  <path class="cls-1" d="M192.04,308.88l.29.05c-.76,4.71-2.08,9.3-3.95,13.73-3.02,7.14-7.35,13.56-12.87,19.07-2.83,2.83-5.91,5.35-9.2,7.54,0,0,0,0,0,0h0c-1.25.55-2.32.94-3.16,1.06.01,0,.13-.11,1.39-1.27,11.95-7.57,21-19.32,25.07-33.18,0,0,0,0,0,0,0,0,0,0,0,0,1.05-2.4,1.96-4.84,2.43-6.98Z"/>
  <path class="cls-1" d="M189.61,315.87c-4.07,13.86-13.12,25.61-25.07,33.18.88-.8,2.3-2.11,4.63-4.24,1.59-1.18,3.16-2.6,4.44-4.06,4.58-4.2,8.22-9.49,10.86-14.12,3.24-5.68,4.99-10.35,5.13-10.75,0,0,0-.01,0-.01Z"/>
  <path class="cls-1" d="M184.48,326.63c-2.64,4.63-6.28,9.92-10.86,14.12,3.97-4.54,8.27-10.91,8.27-10.91l1.3-1.94h0c.53-.29.98-.72,1.29-1.26Z"/>
  <path class="cls-1" d="M183.19,323.6s-.03-.04-.06-.06c.02.02.04.04.06.06Z"/>
  <path class="cls-1" d="M183.1,323.5s-.04-.05-.07-.07c.02.02.05.04.07.07Z"/>
  <path class="cls-1" d="M182.18,322.94s.04.01.06.02c-.02,0-.04-.01-.06-.02Z"/>
  <path class="cls-1" d="M182.09,322.91s.05.01.07.02c-.03,0-.05-.01-.07-.02Z"/>
  <path class="cls-1" d="M183.86,278.09c-.47-1.1-.97-2.19-1.5-3.25-.11.03-.23.06-.35.09v46.71c.44.06.86.2,1.24.42.04.02.07.04.11.07.17-.38.34-.77.5-1.15,2.87-6.79,4.33-14,4.33-21.44,0-7.44-1.46-14.65-4.33-21.44Z"/>
  <path class="cls-1" d="M182.09,322.91s.05.01.07.02c0,0,.01,0,.02,0,.02,0,.04.01.06.02.05.02.11.04.16.06.03.01.07.03.1.05.04.02.09.04.13.07.03.02.07.04.1.06.02.01.03.02.05.03.02.01.03.02.05.03,0,0,0,0,0,0h0c-.26.56-.54,1.11-.82,1.65v-2.02s.06,0,.08.02Z"/>
  <path class="cls-1" d="M182.01,324.91v.14h-.07s.05-.09.07-.14Z"/>
  <path class="cls-3" d="M182.01,321.03c-.19-.16-.49-.42-.87-.76v-44.92l.24-.37h.02c.2,0,.41-.02.61-.06v46.11Z"/>
  <path class="cls-1" d="M181.9,273.68s.07-.02.11-.03c-.04.01-.07.02-.11.03Z"/>
  <path class="cls-1" d="M182,322.89s-.05,0-.08-.01c.03,0,.06,0,.08.01Z"/>
  <path class="cls-1" d="M181.79,325.32l.19.39-.54.26c.12-.22.24-.43.35-.65Z"/>
  <path class="cls-1" d="M181.94,325.05c-.05.09-.09.18-.14.27l-.13-.27h.28Z"/>
  <path class="cls-1" d="M181.44,322.85s.09,0,.14,0c.04,0,.08,0,.12,0,.02,0,.04,0,.07,0,.02,0,.03,0,.05,0,.02,0,.05,0,.07.01.01,0,.02,0,.04,0,.03,0,.05,0,.08.01,0,0,0,0,0,0v2.02s-.05.09-.07.14h-.28l-.06-.12-.24.12h-.22v-2.16s.06-.01.09-.02c.01,0,.02,0,.03,0,.02,0,.04,0,.07,0,.04,0,.08-.01.11-.01Z"/>
  <path class="cls-1" d="M181.6,324.93l.06.12h-.3l.24-.12Z"/>
  <path class="cls-3" d="M181.57,328.31c.57,0,1.12-.15,1.61-.41l-1.3,1.94s-4.3,6.37-8.27,10.91c-1.76,1.61-3.22,2.95-4.44,4.07-3.31,2.47-6.74,3.93-7.96,2.81.1-.25.23-.58.37-.94h0c3.79-2.29,7.29-5.03,10.46-8.21.35-.35.7-.7,1.04-1.06,0,0,.01-.01.02-.02.12-.12.23-.24.34-.36.01-.01.02-.02.03-.03,2.57-2.77,4.84-5.76,6.78-8.96.42.18.86.27,1.32.27Z"/>
  <path class="cls-1" d="M183.23,270.57c.59,1.01.24,2.3-.77,2.89-.08.04-.15.08-.23.11-.03.01-.07.03-.1.04-.03.01-.06.02-.09.03,0,0-.02,0-.03,0h0s0,0,0,0c-.04.01-.07.02-.11.03-.04.01-.08.02-.12.03-.03,0-.06.01-.09.01-.02,0-.04,0-.06,0-.01,0-.03,0-.05,0-.02,0-.05,0-.07,0-.03,0-.07,0-.1,0-.04,0-.09,0-.13,0-.04,0-.08,0-.12-.01-.03,0-.07,0-.1-.01,0,0,0,0,0,0-.02,0-.05,0-.07-.01-.02,0-.04,0-.06-.01-.01,0-.02,0-.03,0-.01,0-.02,0-.03,0-.11-.03-.21-.07-.32-.11-.03-.01-.05-.03-.08-.04-.06-.03-.13-.07-.19-.11-.03-.02-.05-.03-.08-.05,0,0-.01,0-.01,0-.01,0-.02-.02-.03-.02-.01,0-.02-.02-.03-.03-.01,0-.02-.02-.04-.03-.02-.01-.03-.03-.05-.04-.07-.06-.14-.13-.19-.2-.02-.02-.04-.04-.06-.07-.02-.02-.03-.04-.05-.06-.05-.06-.09-.13-.13-.2-.02-.03-.04-.07-.05-.1,0-.02-.02-.03-.02-.05-.03-.06-.06-.13-.08-.19,0-.02-.02-.04-.02-.06-.01-.03-.02-.06-.03-.09,0-.02-.01-.03-.01-.05,0-.02-.01-.04-.01-.06,0-.02,0-.03-.01-.05,0-.03-.01-.07-.02-.11,0-.03,0-.06,0-.09,0-.03,0-.06,0-.09,0-.03,0-.07,0-.1,0-.04,0-.09,0-.13,0-.04,0-.08.01-.12,0-.02,0-.04,0-.07,0-.03,0-.05.01-.08,0-.03.01-.07.02-.1,0,0,0,0,0,0,0-.02.01-.04.02-.06,0-.02.01-.05.02-.07.01-.05.03-.1.05-.15.01-.03.03-.07.04-.1.02-.05.05-.1.08-.15.02-.03.03-.06.05-.09.03-.05.07-.1.1-.15.02-.03.04-.05.06-.08.01-.02.02-.03.04-.05.02-.02.04-.05.06-.07.03-.03.06-.06.1-.09,0,0,0,0,.01-.01.03-.02.05-.05.08-.07.05-.04.1-.08.15-.11.03-.02.07-.05.11-.07.67-.39,1.47-.37,2.1,0,.32.18.59.44.79.78Z"/>
  <path class="cls-1" d="M181.14,274.97c.08,0,.16.01.24.01l-.24.37v-.38Z"/>
  <path class="cls-1" d="M181.14,322.89s.06-.01.09-.02c-.03,0-.06,0-.09.02Z"/>
  <path class="cls-1" d="M181.14,320.28c-2.27-2.06-7.44-7.28-10.05-14.14-1.31-3.44-2.27-7.05-3.01-10.52l13.07-20.26v44.92Z"/>
  <path class="cls-3" d="M179.87,274.61c.39.2.82.32,1.27.36v.38l-13.07,20.26c-.23-1.06-.44-2.1-.63-3.12l12.06-17.33.36-.55Z"/>
  <path class="cls-1" d="M183.34,323.8s.05.08.07.11c.02.04.04.08.06.12,0,0,0,0,0,.01.02.04.03.08.05.12.02.04.03.08.05.13.01.04.02.07.03.11,0,.01,0,.02,0,.04.01.04.02.08.02.11h0s.02.09.02.14c.03.27.02.54-.05.81-.01.04-.03.09-.04.13-.02.07-.05.13-.08.2-.03.06-.06.13-.1.19-.39.68-1.1,1.06-1.83,1.06-.03,0-.07,0-.11,0-.02,0-.04,0-.06,0-.04,0-.08,0-.12-.01-.03,0-.07,0-.1-.02,0,0,0,0-.01,0-.04,0-.08-.02-.12-.03,0,0-.01,0-.02,0-.03,0-.07-.02-.1-.03-.01,0-.02,0-.03-.01.19-.33.37-.65.55-.98l.54-.26-.19-.39c.05-.09.1-.18.14-.27h.07v-.14c.28-.54.56-1.1.82-1.65,0,0,0,0,0,0,.03.02.07.05.1.08.01.01.03.02.05.04h0s.03.03.04.04c0,0,0,0,.01.01.02.02.05.04.07.07.01.01.02.03.04.04.02.02.04.04.06.06.02.03.05.06.07.09.03.04.05.07.08.11,0,0,0,0,0,0Z"/>
  <path class="cls-1" d="M180.69,323.04s-.05.02-.07.03c.02-.01.05-.02.07-.03Z"/>
  <path class="cls-1" d="M180.52,273.55s-.05-.02-.08-.04c.02.01.05.03.08.04Z"/>
  <path class="cls-1" d="M180.28,326.63s-.05-.04-.07-.06l1.23-.6c-.18.33-.36.66-.55.98-.04-.01-.08-.03-.12-.04-.04-.02-.08-.04-.12-.06,0,0,0,0,0,0-.04-.02-.08-.04-.12-.07-.04-.02-.07-.04-.11-.07-.01,0-.02-.01-.03-.02-.03-.03-.06-.05-.1-.07Z"/>
  <path class="cls-1" d="M180.21,326.57s-.05-.04-.08-.07c.03.02.05.05.08.07Z"/>
  <path class="cls-1" d="M179.9,327.86c.11.07.23.13.36.18-1.94,3.2-4.2,6.2-6.78,8.96-.01.01-.02.02-.03.03-.11.12-.23.24-.34.36,0,0-.01.01-.02.02-3.71,3.78-10.46,6.63-10.46,6.63.18-.45.3-.76.3-.76.89-2.19,2.3-6.31,3.53-10.03l12.58-6.11c.24.28.53.52.86.72Z"/>
  <path class="cls-1" d="M179.82,326.14s-.02-.03-.03-.04c-.02-.03-.04-.06-.06-.09h0s-.03-.06-.05-.09c0-.01-.01-.02-.02-.03l1.7-.82h.3l.13.27c-.12.22-.23.44-.35.65l-1.23.6s-.05-.05-.08-.07c0,0-.01,0-.02-.02-.01,0-.02-.02-.03-.03-.01-.01-.02-.02-.03-.03-.07-.07-.13-.14-.18-.21-.02-.02-.03-.05-.05-.07Z"/>
  <path class="cls-1" d="M180.55,323.11l-.91,1.01s.03-.06.04-.1c.02-.04.04-.08.07-.12.08-.14.18-.28.29-.39.02-.02.04-.04.06-.06.03-.03.07-.07.1-.09.03-.03.07-.06.11-.09.04-.03.08-.05.11-.08.04-.03.08-.05.12-.07Z"/>
  <path class="cls-1" d="M179.57,325.63s-.02-.06-.03-.09c0-.03-.02-.06-.02-.09,0-.01,0-.03,0-.04,0-.02-.01-.04-.01-.06,0-.02,0-.05-.01-.07,0-.02,0-.04,0-.06-.01-.12-.02-.24-.01-.36,0-.03,0-.06,0-.09,0,0,0-.01,0-.02,0-.02,0-.04,0-.06,0-.04.01-.08.02-.12,0-.04.02-.08.03-.12.01-.04.02-.08.03-.11,0-.01,0-.03.01-.04h0s.01-.03.01-.04c0,0,0-.02,0-.02.01-.03.02-.06.03-.08,0,0,0,0,0,0h0s.91-1.01.91-1.01h0s0,0,.01,0c.02-.01.04-.02.06-.03.02-.01.05-.02.07-.03.03-.01.06-.03.09-.04.04-.02.08-.03.13-.05,0,0,0,0,0,0,.03-.01.07-.02.1-.03.02,0,.03,0,.05-.01.02,0,.05-.01.08-.02v2.16h.22l-1.7.82s0-.01,0-.02c-.02-.03-.03-.07-.04-.1-.02-.04-.03-.08-.05-.12Z"/>
  <path class="cls-1" d="M179.49,272.54s.01.03.02.05c-.01-.02-.02-.03-.02-.05Z"/>
  <path class="cls-1" d="M179.32,272.03s0,.03.01.05c0-.02,0-.03-.01-.05Z"/>
  <path class="cls-1" d="M179.29,271.83s0,.06.01.09c0-.03,0-.06-.01-.09Z"/>
  <path class="cls-1" d="M172.05,260.58c2.65,2.65,5.01,5.53,7.05,8.62-.19.18-.36.39-.51.6l-26.82-12.87c-.42-.46-.85-.91-1.31-1.35l-6.91-10.14c3.76.72,7.43,1.83,10.98,3.34,5.89,2.49,11.24,5.94,15.93,10.28.54.5,1.07,1.01,1.59,1.53Z"/>
  <path class="cls-3" d="M175.18,259.19c1.35,1.61,5.16,6.25,6.86,9.15-.21-.04-.43-.06-.65-.06-.59,0-1.16.15-1.67.45-.23.13-.44.29-.63.47-2.04-3.08-4.39-5.97-7.05-8.62-.52-.52-1.05-1.03-1.59-1.53,1.74-.17,3.44-.04,4.73.14Z"/>
  <path class="cls-3" d="M151.76,256.93l26.83,12.87c-.16.24-.28.51-.37.78l-25.08-12.04c-.43-.55-.89-1.09-1.37-1.62Z"/>
  <path class="cls-1" d="M178.07,272.03c.03.29.11.58.22.87h-13.74c-.21-.19-.53-.48-.92-.87h14.44Z"/>
  <path class="cls-1" d="M178.02,259.54l-1.74-.21c-4.25-4.59-9.23-8.5-14.75-11.56l.94-.78c4.76,2.67,9.13,5.99,13.04,9.9.87.86,1.7,1.75,2.5,2.66Z"/>
  <path class="cls-1" d="M193.1,298.41c-.11-7.78-1.7-15.33-4.71-22.46-2.55-6.02-6.03-11.53-10.36-16.41l-1.74-.21s.03.04.05.05c2.77,2.99,5.23,6.27,7.33,9.79.25.23.46.49.63.79h0c.17.3.3.62.37.95h0c4.59,8.31,7.24,17.83,7.31,27.95,0,.15,0,.3,0,.45,0,.99-.02,1.97-.07,2.95-.01.29-.03.57-.05.86.31.25.68.42,1.08.51.03-.4.05-.81.07-1.22.05-1.03.08-2.06.08-3.09,0-.3,0-.59,0-.89Z"/>
  <path class="cls-3" d="M175.18,259.19c.44.06.83.13,1.16.19,2.77,2.99,5.23,6.27,7.33,9.79-.45-.42-1.02-.7-1.63-.83-1.7-2.91-5.51-7.54-6.86-9.15Z"/>
  <path class="cls-1" d="M172.05,338.48c-3.17,3.17-6.67,5.92-10.46,8.21.34-.87.76-1.94,1.04-2.65,0,0,6.75-2.84,10.46-6.63-.34.36-.69.71-1.04,1.06Z"/>
  <path class="cls-1" d="M169.18,344.82c1.22-1.12,2.68-2.45,4.44-4.07-1.28,1.47-2.85,2.88-4.44,4.07Z"/>
  <path class="cls-3" d="M162.07,323.8c.31.14.62.28.93.41,1.16.47,2.39.77,3.43.96-.25,1.36-.88,4.51-1.94,8.07l-4.45,2.16c.89-4.34,1.75-9.78,2.03-11.59Z"/>
  <path class="cls-1" d="M163.15,350.33c-.28.04-.53.05-.75.02.72-.42,1.44-.85,2.14-1.3-1.26,1.16-1.38,1.26-1.39,1.27Z"/>
  <path class="cls-1" d="M162.48,246.99l-.94.78c-8.44-4.68-18.15-7.34-28.47-7.34v-1.11c8.1,0,15.97,1.59,23.37,4.72,2.08.88,4.09,1.87,6.04,2.96Z"/>
  <path class="cls-1" d="M161.21,347.62c1.23,1.12,4.65-.34,7.96-2.81-2.33,2.13-3.76,3.44-4.63,4.24-.7.45-1.42.88-2.14,1.3-.32-.03-.58-.14-.78-.33-.78-.72-.91-1.16-.56-2.02.04-.09.09-.23.16-.38Z"/>
  <path class="cls-1" d="M162.07,323.8c-.28,1.82-1.13,7.26-2.03,11.59l-3.84,1.87c.97-6.88.89-16.33.89-16.33,0,0,2.49,1.71,4.98,2.87Z"/>
  <path class="cls-3" d="M167.12,307.96c-1.19-3.91-2.81-9.53-3.72-18.61,0-.03,0-.06,0-.09-.8-7.87-2.74-13.95-3.23-15.39-1.52-.24-3.34-.66-5.16-1.39.57.91,1.68,2.89,2.59,5.8,1.29,4.12,1.51,9.5,1.51,9.5,0,0,.02.59.07,1.53.09,1.68.25,4.51.48,7.18.36,4.18,1.05,11.04,3.69,17.62,2.46,6.14,8.96,9.94,14.97,10.09.07-.32.19-.63.36-.92.38-.65.96-1.15,1.63-1.42-7.35-1.36-12.07-10.23-13.19-13.9Z"/>
  <path class="cls-1" d="M156.04,338.3l3.78-1.83c-.09.4-.18.79-.26,1.16-1.25,5.3-5.07,9.91-10.14,13.05-5.07,3.14-13.29,3.7-13.29,3.7,1.09-.56,2.22-1.7,3.27-3.03,5.63.93,14.3-3.97,16.03-10.16.24-.84.44-1.82.61-2.88Z"/>
  <path class="cls-1" d="M166.66,320.79c-1.73-1.55-4.44-6.14-5.59-10.79-1.15-4.65-1.55-7.15-1.78-13.09-.13-3.54-.18-6.11-.19-7.6,0-1.01,0-1.53,0-1.53,0,0-.23-5.37-1.51-9.5-.91-2.91-2.01-4.89-2.59-5.8-.07-.03-.15-.06-.22-.09-4.53-1.86-6.04-2.74-6.09-2.76.08.1,5.15,6.9,6.36,14.55.25,1.58.39,3.09.46,4.54.25,5.64-.63,10.42-.63,15.17,0,5.99,2.58,17.22,14.31,19.2,0,0-.79-.77-2.53-2.32Z"/>
  <path class="cls-1" d="M143.78,344.25l12.26-5.95c-.17,1.06-.38,2.04-.61,2.88-1.74,6.19-10.41,11.09-16.03,10.16,2.2-2.78,4.03-6.38,4.39-7.09Z"/>
  <path class="cls-1" d="M142.73,260.07c4.23,2.84,6.03,4.64,8.77,6.78,2.74,2.14,4.89,3.68,7.04,4.8-6.02-2.1-11.3-5.7-15.42-8.52-5.51-3.77-9.6-4.56-9.6-4.56v-1.34c.99.04,5.46.33,9.2,2.83Z"/>
  <path class="cls-1" d="M178.21,270.58c-.15.46-.2.95-.14,1.44h-14.44c-1.58-1.54-4.43-4.58-7.25-8.86-1-1.52-2.05-3.1-3.26-4.62l25.08,12.04Z"/>
  <path class="cls-1" d="M148.09,283.7c1.87.6,3.47,1.71,4.27,2.34.25.84.44,1.61.55,2.19l-4.71-.43c.2-.23.34-.41.4-.49.15-.23.08-.48-.16-.48l.09-.32c.41.15.6.11.65-.08.06-.25-.2-.38-1.56-1.12-1.36-.74-2.02-.98-3.12-.92-1.11.06-2.8.86-4.03,2.47-.52.67-1.11,1.2-1.64,1.66-.68.58-1.27,1.04-1.46,1.52-.48-.17-1.37-.35-1.89-.3,0-.5,0-.99,0-1.47,0-3.47,1.01-4.54,2.17-4.83,1.15-.28,4.91-.38,8.47-.13.67.05,1.33.19,1.96.39Z"/>
  <path class="cls-1" d="M142.69,256.12c1.42.93,2.74,1.98,3.97,3.13,1.22,1.16,2.37,2.38,3.36,3.74-1.16-1.21-2.39-2.33-3.68-3.37-.64-.52-1.3-1.03-1.98-1.5-.68-.47-1.36-.93-2.08-1.35-.36-.2-.71-.41-1.08-.6-.36-.2-.73-.38-1.1-.55-.74-.34-1.5-.65-2.27-.91-.77-.25-1.56-.47-2.35-.61-.2-.04-.4-.06-.6-.09l-.3-.04c-.1-.01-.2-.02-.3-.03-.2-.02-.4-.04-.6-.05h-.15v-.99h.21c.22.02.43.05.64.07.11.01.22.02.32.03l.32.05c.21.04.43.06.64.1l.63.14c.21.04.42.11.62.16l.31.08c.1.03.2.07.31.1.2.07.41.13.61.2.8.29,1.59.64,2.35,1.02.76.39,1.49.82,2.2,1.28Z"/>
  <path class="cls-1" d="M146.12,328.54s.59,1.86.65,4.55c.05,2.28-.01,3.35-.4,4.54-.07.21-.15.43-.24.65h0c-.57.99-1.28,2.22-2.23,4.09-.19.38-.38.74-.56,1.08-.45.84-.87,1.59-1.28,2.26-1.28-.1-5.49-.44-6.27-.6-.93-.19-1.21-.89,0-1.85,1.21-.97,9.22-8.6,9.72-11.01.49-2.34.03-4.7,0-4.82.25.41.45.78.61,1.1Z"/>
  <path class="cls-1" d="M146.36,337.62c1.5-2.37,2.37-15.36,1.95-18.44-.07-.53-.24-1.04-.47-1.53h.03c1.23,2.58,1.99,5.48,1.75,8.32-.31,3.67-1.49,7.89-2.19,9.69-.35.9-.76,1.63-1.32,2.61.09-.23.17-.44.24-.65Z"/>
  <path class="cls-1" d="M148.31,319.19c.42,3.08-.46,16.07-1.95,18.44.39-1.19.45-2.26.4-4.54-.06-2.69-.65-4.55-.65-4.55h0c0-.07-.11-2.32-.26-5-.15-2.72-.49-4.9-2.12-7.38-.09-.14-.18-.28-.28-.41-1.65-2.29-4.23-4.17-6.68-4-2.59.19-3.7,1.32-3.7,1.32v-1.87s1.62-1.19,3.79-1.19,4.61,1.74,6.05,2.73c1.19.82,3.83,2.58,4.94,4.91.23.49.39.99.46,1.53Z"/>
  <path class="cls-3" d="M144.87,288.55c-1.75-.11-3.03-1.69-3.03-1.75s1.44-1.13,2.63-1.35c1.19-.22,2.85.5,3.59.86.18.09.34.15.47.2l-.09.32c-.05,0-.11.01-.18.04-.38.16-1.64,1.79-3.39,1.69Z"/>
  <path class="cls-1" d="M141.05,298.44c1.07,1.55,1.24,2.72,1.51,4.06.2,1.01.32,2.39.36,3-.2-.13-.41-.24-.6-.34-1.25-.6-1.42-.8-1.36-.92.06-.12.93-.72.67-1.84-.26-1.11-1.89-4.14-4.31-3.62,0,0-.22-7.76.03-8.65.01-.04.02-.07.04-.11.19-.48.78-.94,1.46-1.52l.16.09c.07-.04.26-.08.69-.09-.48.35-1.14.95-1.16,1.03-.02.09-.21,3.72.16,5.09.37,1.38,1.31,2.26,2.37,3.8Z"/>
  <path class="cls-1" d="M152.95,288.44c-.01-.07-.02-.14-.04-.21l-4.71-.43c-.48.54-1.33,1.37-2.25,1.81-1.3.62-3.18-.47-3.96-.99-.78-.53-1.7-.52-2.18-.19-.04.03-.09.06-.13.09,1.18-.02,1.81.7,3.04,1.66,1.23.96,2.38,1.31,3.98.62,1.6-.68,5.08-2.01,5.08-2.01,0,0-1.36,3.03-3.88,7.77-2.52,4.75-3.05,7.57-3.2,8.49-.1.59.17,1.1.38,1.38.16-.6.53-1.26,1.12-2.2.25-.4.54-.84.87-1.36,1.43-2.24,4.12-6.7,4.81-8.09.48-.96.96-2.56,1.1-4.19h0c.06-.74.06-1.48-.05-2.16Z"/>
  <path class="cls-1" d="M141.84,286.8c0,.06,1.28,1.64,3.03,1.75,1.75.11,3-1.53,3.39-1.69.07-.03.13-.04.18-.04.24,0,.31.25.16.48-.05.08-.19.26-.4.49-.48.55-1.33,1.37-2.25,1.81-1.3.62-3.18-.47-3.96-.99-.78-.53-1.7-.52-2.18-.19-.04.03-.08.06-.13.09-.43,0-.62.05-.69.09l-.16-.09c.53-.46,1.12-.99,1.64-1.66,1.23-1.61,2.92-2.41,4.03-2.47,1.11-.06,1.76.18,3.12.92,1.36.74,1.62.87,1.56,1.12-.05.19-.24.23-.65.08-.13-.05-.29-.11-.47-.2-.74-.36-2.4-1.08-3.59-.86-1.19.22-2.63,1.3-2.63,1.35Z"/>
  <path class="cls-1" d="M159.65,296.49c.36,4.18,1.05,11.04,3.69,17.62,2.46,6.14,8.96,9.94,14.97,10.09-.17.75-.08,1.53.25,2.21l-11.73,5.69c1.19-3.63,2.13-6.61,2.13-6.61,0,0-1.08-.05-2.53-.32-1.04-.19-2.28-.49-3.43-.96-.31-.12-.62-.26-.93-.41h0c-2.49-1.17-4.98-2.87-4.98-2.87,0,0,.08,9.45-.89,16.33l-11.68,5.67c.81-1.45,2.19-3.94,3.18-5.87,1.49-2.91,3.85-6.34,4.91-10.51,1.07-4.17,1.36-11.66,0-15.28-1.36-3.62-5.25-6.04-5.73-5.89s2.31,7.36,2.31,7.36c0,0-.87-1.64-3.65-4.13s-6.22-3.63-6.22-3.63c-.82-.21-1.96.14-2.77.89-.81.75-2.14,1.87-3.39,1.9-.03,0-.06,0-.09,0v-1.21c1.09-.13,2.6-1.49,2.92-1.99.32-.5.34-.99.47-.99s1.35.37,1.99.27c.63-.1,1.27-.66,1.49-.96.22-.3.19-.55-.39-1.33-.59-.78-1.34-1.02-2.07-.5-.72.52-1.56.82-1.56.82,0,0-.44-.06-.44-3.11,0-2.63,0-5.96.01-9.05.52-.05,1.4.13,1.89.3-.02.04-.03.07-.04.11-.25.89-.03,8.65-.03,8.65,2.43-.53,4.05,2.5,4.31,3.62.26,1.11-.61,1.72-.67,1.84-.06.12.11.33,1.36.92.2.09.4.21.6.34,1.07.67,2.08,1.66,2.08,1.66,0-.25.03-.49.09-.74.16-.6.53-1.26,1.12-2.2.25-.4.54-.84.87-1.36,1.43-2.24,4.12-6.7,4.81-8.09.48-.96.96-2.56,1.1-4.19h0c.06-.73.06-1.47-.05-2.15-.01-.07-.02-.14-.04-.21-.11-.58-.3-1.35-.55-2.19-.72-2.47-1.86-5.62-2.34-6.87-.65-1.73-2.07-7.86-7.38-12.28-4.3-3.59-8.23-3.99-9.57-4.02v-9h.46v4.72s4.09.79,9.6,4.56c4.12,2.82,9.4,6.42,15.42,8.52h0c2.03.71,4.14,1.25,6.33,1.53-.01-.01-.13-.11-.32-.29h13.74c.06.14.12.28.2.41.33.57.81,1.02,1.38,1.31l-.36.55-12.06,17.33c-.82-4.35-1.37-8.32-1.98-11.32-1.22-6.01-1.42-6.96-1.42-6.96,0,0-1.62.02-3.89-.34-1.52-.24-3.34-.66-5.16-1.39-.07-.03-.15-.06-.22-.09-4.53-1.86-6.04-2.74-6.09-2.76.08.1,5.15,6.9,6.36,14.55.25,1.58.39,3.09.46,4.54.25,5.64-.63,10.42-.63,15.17,0,5.99,2.58,17.22,14.31,19.2,0,0-.79-.77-2.53-2.32-1.73-1.55-4.44-6.14-5.59-10.79-1.15-4.65-1.55-7.15-1.78-13.09-.13-3.54-.22-7.58-.19-9.09"/>
  <path class="cls-1" d="M142.35,245.22l5.68,8.34c-3.43-2.46-7.97-4.18-14.49-4.31v3.64h-.44s-.02-.01-.02-.01v-4.78c1.85,0,3.35-1.5,3.35-3.35,0-.07,0-.13,0-.19,1.99.12,3.97.34,5.93.68Z"/>
  <path class="cls-3" d="M136.12,354.37s8.21-.56,13.29-3.7c5.07-3.14,8.9-7.75,10.15-13.05.09-.37.17-.76.26-1.16l4.32-2.1c-.85,2.67-1.94,5.48-3.3,7.85-.08.15-.17.3-.26.44-2.23,3.7-5.88,7.09-10.61,9.31,0,0,0,0,0,0-4.38,1.41-8.91,2.26-13.55,2.53-.17.01-.35.02-.53.03l.23-.17Z"/>
  <path class="cls-3" d="M135.89,354.54c.18,0,.35-.02.53-.03,4.63-.27,9.16-1.12,13.55-2.54-3.99,1.87-8.77,2.91-14.12,2.59h0s.05-.03.05-.03Z"/>
  <path class="cls-1" d="M133.07,242.63c1.08,0,1.97.81,2.1,1.86.01.08.02.17.02.25,0,1.17-.95,2.11-2.11,2.11s-2.11-.95-2.11-2.11c0-.09,0-.17.02-.25.13-1.05,1.02-1.86,2.1-1.86Z"/>
  <path class="cls-1" d="M133.09,252.87h.44v1h-.46s0-.01,0-.01v-.99h.02Z"/>
  <path class="cls-1" d="M133.07,239.31v1.11c-17.09,0-32.5,7.3-43.27,18.95-1.67,1.81-3.24,3.73-4.67,5.73l-1.07-.48c1.95-2.75,4.14-5.34,6.56-7.75,5.51-5.51,11.93-9.83,19.08-12.86,7.4-3.13,15.26-4.72,23.37-4.72Z"/>
  <path class="cls-1" d="M123.8,245.22c1.95-.33,3.93-.56,5.93-.68,0,.06,0,.13,0,.19,0,1.85,1.5,3.35,3.35,3.35v4.78h-.46s0-3.62,0-3.62c-6.52.13-11.07,1.85-14.49,4.31l5.68-8.34Z"/>
  <path class="cls-1" d="M133.05,252.87h.02v.99h-.46s0-.97,0-.97l.44-.02Z"/>
  <path class="cls-1" d="M152.36,286.04c-.72-2.47-1.86-5.62-2.34-6.87-.65-1.73-2.07-7.86-7.38-12.28-4.3-3.59-8.23-3.99-9.57-4.02-1.34.03-5.27.43-9.57,4.02-5.31,4.42-6.73,10.55-7.38,12.28-.47,1.25-1.61,4.4-2.34,6.87.8-.63,2.39-1.74,4.27-2.34-.25-.58-.78-2.1-.42-4.12.47-2.61,2.23-6.37,4.74-9.23,2.42-2.76,7.33-4.76,10.69-4.84,3.36.08,8.27,2.08,10.69,4.84,2.51,2.87,4.27,6.62,4.74,9.23.36,2.02-.16,3.54-.42,4.12,1.87.6,3.47,1.72,4.27,2.34Z"/>
  <path class="cls-1" d="M119.38,333.09c-.05,2.28.01,3.35.4,4.54-1.5-2.37-2.37-15.36-1.95-18.44.07-.53.24-1.04.47-1.53,1.11-2.33,3.75-4.09,4.94-4.91,1.44-.99,3.88-2.73,6.05-2.73s3.79,1.19,3.79,1.19v1.87s-1.1-1.14-3.7-1.32c-2.45-.18-5.03,1.7-6.68,4-.1.13-.19.27-.28.41-1.63,2.48-1.97,4.65-2.12,7.38-.15,2.69-.26,4.94-.26,5h0s-.59,1.86-.65,4.55Z"/>
  <path class="cls-1" d="M135.14,319.76c-.34-.37-.95-.9-2.07-1.02-1.12.11-1.73.65-2.07,1.02-.28.3-.51.51-.83.84h5.8c-.33-.34-.56-.54-.84-.84Z"/>
  <path class="cls-3" d="M133.07,348.34c.52,0,1.14.17,2.25.6,1.89.73,3.36,1.2,3.81,1.34-1.37,2.21-3.05,3.38-3.05,3.38,0,0-.84.81-2.27.95h0c-.23.02-.48.02-.74,0-.26.02-.51.02-.74,0h0c-1.43-.13-2.27-.95-2.27-.95,0,0-1.68-1.17-3.05-3.38.45-.14,1.92-.62,3.81-1.34,1.1-.43,1.73-.6,2.25-.6Z"/>
  <path class="cls-1" d="M132.61,257.24v1.34s-4.09.79-9.6,4.56c-4.12,2.82-9.4,6.42-15.42,8.52,2.15-1.12,4.3-2.66,7.04-4.8,2.74-2.14,4.54-3.94,8.77-6.78,3.74-2.51,8.21-2.8,9.2-2.83Z"/>
  <path class="cls-1" d="M119.81,259.61c-1.29,1.04-2.52,2.16-3.68,3.37.99-1.35,2.14-2.58,3.36-3.74,1.23-1.15,2.55-2.21,3.97-3.13.71-.46,1.44-.89,2.2-1.28.76-.38,1.54-.72,2.35-1.02.2-.07.41-.14.61-.2.1-.03.2-.07.31-.1l.31-.08c.21-.05.41-.12.62-.16l.63-.14c.21-.05.42-.07.64-.1l.32-.05c.11-.01.21-.02.32-.03.21-.02.43-.04.64-.06h.21s0,.98,0,.98h-.15c-.2.02-.4.04-.6.06-.1,0-.2.02-.3.03l-.3.04c-.2.03-.4.05-.6.09-.8.14-1.58.36-2.35.61-.77.26-1.53.57-2.27.91-.37.18-.74.36-1.1.55-.37.19-.72.39-1.08.6-.71.42-1.4.88-2.08,1.35-.68.47-1.34.97-1.98,1.5Z"/>
  <path class="cls-1" d="M139.99,326.7c-.53-2.29-1.91-3.97-2.26-4.22-.2-.14-.38-.32-.61-.58,0,0,.46,3.61-.01,5.65-.47,2.04-1.79,3.56-2.73,5.7-.15.34-.27.69-.39,1.03-.04.14-.09.28-.13.42-.48,1.71-.59,3.33-.8,3.64-.21-.31-.32-1.93-.8-3.64-.04-.14-.08-.28-.12-.42-.11-.35-.24-.7-.39-1.03-.94-2.14-2.26-3.66-2.73-5.7-.47-2.04-.01-5.65-.01-5.65-.23.26-.42.44-.61.58-.35.25-1.73,1.93-2.26,4.22-.15.63-.16,1.23-.09,1.81h0c.13,1.01.53,1.96.98,2.91.22.47.46.93.68,1.41.82,1.77,4.53,7.8,5.35,9.13.83-1.34,4.53-7.36,5.35-9.13.22-.48.46-.94.68-1.41.45-.95.85-1.9.98-2.91h0c.07-.58.06-1.18-.09-1.81Z"/>
  <path class="cls-1" d="M116.96,286.42c.05.2.26.23.71.06l.03.34c-.24,0-.3.25-.15.48.05.08.19.26.4.49l-4.71.43c.11-.58.3-1.35.55-2.19.8-.63,2.39-1.74,4.27-2.34.63-.2,1.29-.35,1.97-.39,3.56-.25,7.31-.15,8.47.13,1.15.28,2.17,1.36,2.17,4.83,0,.48,0,.97,0,1.47-.52-.05-1.4.13-1.89.3-.18-.45-.71-.88-1.35-1.42-.56-.48-1.2-1.04-1.75-1.76-1.23-1.61-2.92-2.41-4.03-2.47-1.11-.06-1.76.18-3.12.92-1.37.74-1.63.87-1.56,1.12Z"/>
  <path class="cls-1" d="M120.64,332.26c.51,2.4,8.51,10.04,9.72,11.01,1.21.97.93,1.66,0,1.85-.78.16-4.99.5-6.27.6-.41-.68-.83-1.42-1.28-2.26-.18-.34-.37-.7-.56-1.08-.94-1.87-1.66-3.1-2.23-4.08h0c-.09-.23-.17-.45-.24-.66-.39-1.19-.45-2.26-.4-4.54.06-2.69.65-4.55.65-4.55h0c.16-.32.36-.69.6-1.1-.02.12-.49,2.48,0,4.82Z"/>
  <path class="cls-1" d="M107.05,287.66c.04,1.51-.06,5.7-.2,9.25-.23,5.94-.62,8.43-1.78,13.09-1.15,4.65-3.86,9.24-5.59,10.79-1.73,1.55-2.53,2.32-2.53,2.32,11.72-1.99,14.31-13.22,14.31-19.2,0-4.76-.88-9.54-.63-15.17.06-1.45.21-2.96.46-4.54,1.21-7.66,6.28-14.45,6.36-14.55-.05.03-1.56.91-6.09,2.76-.07.03-.15.06-.22.09-1.82.72-3.64,1.14-5.16,1.39-2.27.37-3.89.34-3.89.34,0,0-.2.95-1.42,6.96-.59,2.92-1.13,6.78-1.92,11.01l-11.85-17.02-.44-.66c.48-.29.89-.69,1.18-1.19.08-.13.15-.27.2-.41h13.74c-.21.19-.32.29-.32.29,2.18-.28,4.3-.82,6.33-1.52h0c6.02-2.1,11.3-5.7,15.42-8.52,5.51-3.77,9.6-4.56,9.6-4.56v-4.7h.46s0-.01,0-.01v9c-1.34.03-5.27.43-9.57,4.02-5.31,4.42-6.73,10.55-7.38,12.28-.47,1.25-1.61,4.4-2.34,6.87-.25.84-.44,1.61-.55,2.19-.01.07-.03.14-.04.21-.11.68-.11,1.42-.05,2.15h0c.14,1.63.62,3.23,1.1,4.19.7,1.39,3.38,5.84,4.81,8.09.33.52.62.96.87,1.36.59.94.96,1.6,1.12,2.2.07.25.1.49.09.74,0,0,1.01-.99,2.08-1.66.2-.13.4-.24.6-.34,1.25-.6,1.42-.8,1.36-.92-.06-.12-.93-.72-.67-1.84.26-1.11,1.89-4.14,4.31-3.62,0,0,.22-7.76-.03-8.65-.01-.04-.02-.07-.04-.11.48-.17,1.37-.35,1.89-.3,0,3.09.01,6.42.01,9.05,0,3.05-.44,3.11-.44,3.11,0,0-.84-.3-1.56-.82-.72-.52-1.48-.28-2.07.5-.59.78-.61,1.04-.39,1.33.22.3.86.86,1.49.96.63.1,1.86-.27,1.99-.27s.15.49.47.99c.32.5,1.83,1.87,2.92,1.99v1.21s-.06,0-.09,0c-1.25-.03-2.58-1.15-3.39-1.9-.81-.75-1.94-1.11-2.77-.89,0,0-3.43,1.15-6.22,3.63-2.78,2.48-3.65,4.13-3.65,4.13,0,0,2.8-7.2,2.31-7.36-.48-.16-4.37,2.27-5.73,5.89-1.36,3.62-1.07,11.11,0,15.28,1.07,4.17,3.42,7.6,4.91,10.51.99,1.93,2.37,4.42,3.18,5.87l-11.68-5.67c-.97-6.88-.89-16.33-.89-16.33,0,0-2.48,1.7-4.98,2.87h0c-.31.15-.62.28-.93.41-1.16.47-2.39.77-3.43.96-1.45.26-2.53.32-2.53.32,0,0,.94,2.99,2.13,6.61l-11.73-5.69c.33-.68.42-1.46.25-2.21,6-.15,12.5-3.95,14.97-10.09,2.64-6.58,3.33-13.44,3.69-17.62"/>
  <path class="cls-3" d="M130.29,354.57c-5.35.32-10.13-.72-14.12-2.59,4.38,1.41,8.91,2.26,13.55,2.54.17.01.35.02.53.03,0,0,.02.01.05.03Z"/>
  <path class="cls-1" d="M106.33,336.47l3.77,1.83c.17,1.06.38,2.04.61,2.88,1.74,6.19,10.41,11.09,16.03,10.16,1.05,1.33,2.18,2.47,3.27,3.03,0,0-8.21-.56-13.29-3.7-5.07-3.14-8.9-7.75-10.14-13.05-.09-.37-.18-.76-.26-1.16Z"/>
  <path class="cls-1" d="M117.67,286.48c-.45.17-.66.14-.71-.06-.06-.25.2-.38,1.56-1.12,1.36-.74,2.02-.98,3.12-.92,1.11.06,2.8.86,4.03,2.47.55.72,1.19,1.28,1.75,1.76h-.26c-.05-.05-.24-.09-.7-.1-.05-.03-.09-.06-.13-.09-.48-.33-1.4-.33-2.18.19-.78.53-2.66,1.62-3.96.99-.92-.44-1.76-1.27-2.25-1.81-.2-.23-.34-.41-.4-.49-.15-.23-.08-.48.15-.48.05,0,.12.01.19.04.38.16,1.64,1.79,3.39,1.69,1.75-.11,3.03-1.69,3.03-1.75s-1.44-1.13-2.63-1.35c-1.19-.22-2.85.5-3.59.86-.15.08-.29.13-.41.18Z"/>
  <path class="cls-1" d="M127.42,288.61c.63.54,1.17.98,1.35,1.42.02.04.03.07.04.11.25.89.03,8.65.03,8.65-2.43-.53-4.05,2.5-4.31,3.62-.26,1.11.61,1.72.67,1.84.06.12-.11.33-1.36.92-.2.09-.4.21-.6.34.05-.61.16-1.99.36-3,.26-1.34.44-2.52,1.51-4.06,1.06-1.55,2-2.43,2.37-3.8.37-1.38.18-5,.16-5.09-.02-.08-.68-.68-1.16-1.03.47,0,.65.05.7.1h.26Z"/>
  <path class="cls-3" d="M127.61,289.54c.02.09.21,3.72-.16,5.09-.37,1.38-1.31,2.25-2.37,3.8-1.07,1.55-1.24,2.72-1.51,4.06-.2,1.01-.32,2.39-.36,3-1.07.67-2.08,1.66-2.08,1.66,0-.25-.03-.49-.09-.74.21-.28.48-.78.38-1.38-.15-.93-.68-3.75-3.2-8.49-2.52-4.75-3.88-7.77-3.88-7.77,0,0,3.48,1.33,5.08,2.01,1.6.68,2.75.33,3.98-.62,1.23-.96,1.86-1.68,3.04-1.66.48.35,1.14.95,1.16,1.04Z"/>
  <path class="cls-1" d="M135.78,343.27c1.21-.97,9.22-8.6,9.72-11.01.49-2.34.03-4.7,0-4.82h0c-.36-.6-.8-1.27-1.35-1.95-.24-.29-.47-.59-.71-.89-.18-.22-.36-.45-.54-.68-1.26-1.57-2.66-3.22-4.73-5.07-1.73-1.55-2.22-2.51-2.34-3.01h0s-1.17.96-2.78,1.09c-1.61-.13-2.78-1.09-2.78-1.09h0c-.12.5-.61,1.46-2.34,3.01-2.07,1.86-3.47,3.5-4.73,5.07-.18.23-.36.45-.54.68-.24.3-.47.59-.71.89-.54.68-.99,1.35-1.35,1.95h0c-.02.12-.49,2.48,0,4.82.51,2.4,8.51,10.04,9.72,11.01,1.21.97.93,1.66,0,1.85-.78.16-4.99.5-6.27.6,1.06,1.77,2.01,3.09,2.9,4.54,0,0,.01.02.02.03h0c.45-.14,1.93-.62,3.81-1.34,1.11-.43,1.73-.6,2.25-.6.52,0,1.14.17,2.25.6,1.89.73,3.36,1.2,3.81,1.34h0s.01-.02.02-.03c.89-1.45,1.84-2.77,2.9-4.54-1.28-.1-5.49-.44-6.27-.6-.93-.19-1.21-.89,0-1.85ZM133.07,341.96c-.83-1.34-4.53-7.36-5.35-9.13-.22-.48-.46-.94-.68-1.41-.45-.95-.85-1.9-.98-2.91h0c-.07-.58-.06-1.17.09-1.81.53-2.29,1.91-3.97,2.26-4.22.2-.14.38-.32.61-.58.18-.2.39-.45.66-.77.19-.22.34-.39.48-.54.32-.34.56-.54.83-.85.34-.37.95-.9,2.07-1.02,1.12.11,1.73.65,2.07,1.02.28.3.51.51.83.85.14.15.3.32.48.54.27.32.48.56.66.77.23.26.42.44.61.58.35.25,1.73,1.93,2.26,4.22.15.63.16,1.23.09,1.81h0c-.13,1.01-.53,1.96-.98,2.91-.22.47-.46.93-.68,1.41-.82,1.77-4.53,7.8-5.35,9.13Z"/>
  <path class="cls-1" d="M126.75,351.35c-5.63.93-14.3-3.97-16.03-10.16-.24-.84-.44-1.82-.61-2.88l12.26,5.95c.36.72,2.19,4.31,4.39,7.09Z"/>
  <path class="cls-3" d="M116.18,351.98s0,0,0,0c-4.73-2.22-8.38-5.61-10.61-9.31-.09-.15-.18-.3-.26-.44-1.35-2.38-2.45-5.18-3.3-7.85l4.32,2.1c.09.4.18.79.26,1.16,1.25,5.3,5.07,9.91,10.15,13.05,5.07,3.14,13.29,3.7,13.29,3.7l.23.16c-.18,0-.35-.02-.53-.03-4.63-.27-9.17-1.12-13.55-2.53Z"/>
  <path class="cls-3" d="M121.67,285.45c1.19.22,2.63,1.3,2.63,1.35s-1.28,1.64-3.03,1.75c-1.75.11-3-1.53-3.39-1.69-.07-.03-.13-.04-.19-.04l-.03-.34c.12-.05.26-.1.41-.18.74-.36,2.4-1.08,3.59-.86Z"/>
  <path class="cls-3" d="M146.11,328.54c0-.06-.11-2.32-.26-5-.15-2.72-.49-4.9-2.12-7.38-.09-.14-.18-.28-.28-.41-.31.38-1.16,1.13-2.94,1.19-2.35.07-4.59-1.07-4.66-1.1.12.5.61,1.46,2.34,3.01,2.07,1.86,3.47,3.5,4.73,5.07.18.23.36.45.54.68.24.3.47.59.71.89.54.68.99,1.35,1.35,1.95h0c.24.41.44.79.6,1.1Z"/>
  <path class="cls-3" d="M125.64,316.94c-1.79-.06-2.63-.81-2.94-1.19-.1.13-.19.27-.28.41-1.63,2.48-1.97,4.65-2.12,7.38-.15,2.69-.26,4.94-.26,5,.16-.32.36-.69.6-1.1h0c.36-.6.8-1.27,1.35-1.95.24-.29.47-.59.71-.89.18-.22.36-.45.54-.68,1.26-1.57,2.66-3.22,4.73-5.07,1.73-1.55,2.22-2.51,2.34-3.01-.07.04-2.31,1.17-4.66,1.1Z"/>
  <path class="cls-1" d="M122.6,245.44l-6.91,10.14c-.46.44-.9.89-1.31,1.35l-26.83,12.87c-.14-.22-.31-.42-.51-.6,2.04-3.08,4.39-5.96,7.05-8.62.52-.52,1.05-1.03,1.59-1.53,4.69-4.34,10.04-7.79,15.93-10.28,3.56-1.5,7.23-2.62,10.99-3.34Z"/>
  <path class="cls-1" d="M123.42,290.17c1.23-.96,1.86-1.68,3.04-1.66-.05-.03-.09-.06-.13-.09-.48-.33-1.4-.33-2.18.19-.78.53-2.66,1.62-3.96.99-.92-.44-1.76-1.27-2.25-1.81l-4.71.43c-.01.07-.03.14-.04.21-.11.68-.11,1.42-.05,2.15h0c.14,1.62.62,3.23,1.1,4.19.7,1.39,3.38,5.84,4.81,8.09.33.52.62.96.87,1.36.59.94.96,1.6,1.12,2.2.21-.28.48-.78.38-1.38-.15-.93-.68-3.75-3.2-8.49-2.52-4.75-3.88-7.77-3.88-7.77,0,0,3.48,1.33,5.08,2.01,1.6.68,2.75.33,3.98-.62Z"/>
  <path class="cls-1" d="M146.69,315.46c-1.89-3.09-8.7-7.72-9.5-8.13-.79-.41-.57-.69-.34-.87.23-.17,2.47-1.47,2.47-1.47-.82-.21-1.96.14-2.77.89-.81.75-2.14,1.87-3.39,1.9-.03,0-.06,0-.09,0-.03,0-.06,0-.09,0-1.25-.03-2.58-1.15-3.39-1.9-.81-.75-1.94-1.11-2.77-.89,0,0,2.24,1.3,2.47,1.47.23.17.45.45-.34.87-.79.41-7.61,5.03-9.5,8.13-.43.7-.83,1.43-1.19,2.19h.03c1.11-2.32,3.75-4.08,4.94-4.9,1.44-.99,3.88-2.73,6.05-2.73s3.79,1.19,3.79,1.19c0,0,1.62-1.19,3.79-1.19s4.61,1.74,6.05,2.73c1.19.82,3.83,2.58,4.94,4.91h.03c-.36-.77-.76-1.5-1.19-2.2Z"/>
  <path class="cls-1" d="M117.83,319.19c-.42,3.08.46,16.07,1.95,18.44.07.21.15.43.24.65-.56-.98-.98-1.71-1.32-2.61-.69-1.8-1.87-6.01-2.19-9.69-.24-2.84.52-5.74,1.75-8.34h.03c-.23.5-.4,1.01-.47,1.54Z"/>
  <path class="cls-1" d="M111.36,272.39c4.53-1.86,6.04-2.74,6.09-2.76-.08.1-5.15,6.9-6.36,14.55-.25,1.58-.39,3.09-.46,4.54-1.08.34-2.36.51-3.6.58,0-1.01,0-1.53,0-1.53,0,0,.23-5.37,1.51-9.5.91-2.91,2.01-4.89,2.59-5.8.07-.03.14-.06.22-.09Z"/>
  <path class="cls-1" d="M87.93,270.58l25.08-12.04c-1.2,1.52-2.25,3.09-3.26,4.62-2.82,4.28-5.67,7.32-7.25,8.86h-14.44c.06-.49,0-.98-.14-1.44Z"/>
  <path class="cls-3" d="M105.98,273.87c1.52-.24,3.34-.66,5.16-1.39-.57.91-1.68,2.89-2.59,5.8-1.29,4.12-1.51,9.5-1.51,9.5,0,0-.02.59-.07,1.53-1.72.1-3.35.01-4.21-.05.8-7.87,2.74-13.95,3.23-15.39Z"/>
  <path class="cls-1" d="M110.64,288.73c-.25,5.64.63,10.42.63,15.17,0,5.99-2.58,17.22-14.31,19.2,0,0,.79-.77,2.53-2.32,1.73-1.55,4.44-6.14,5.59-10.79,1.15-4.65,1.55-7.15,1.78-13.09.13-3.54.18-6.11.19-7.6,1.24-.07,2.52-.24,3.59-.58Z"/>
  <path class="cls-1" d="M109.94,337.26l-3.84-1.87c-.89-4.34-1.75-9.78-2.03-11.59h0c2.49-1.17,4.98-2.87,4.98-2.87,0,0-.08,9.45.9,16.33Z"/>
  <path class="cls-3" d="M105.3,342.23c.08.15.17.3.26.44-.63.46-1.96,1.41-2.04,1.37-.18-.45-.3-.76-.3-.76-.89-2.19-2.3-6.31-3.53-10.03l2.31,1.12c.85,2.67,1.94,5.47,3.3,7.85Z"/>
  <path class="cls-3" d="M102.75,289.26c.87.07,2.49.15,4.21.05-.08,1.68-.25,4.51-.48,7.18-.36,4.18-1.05,11.04-3.69,17.62-2.46,6.14-8.96,9.94-14.97,10.09-.07-.32-.19-.63-.36-.92-.38-.65-.96-1.15-1.63-1.42,7.35-1.36,12.07-10.23,13.19-13.9,1.19-3.91,2.81-9.53,3.72-18.61,0-.03,0-.06,0-.09Z"/>
  <path class="cls-3" d="M104.07,323.8c.28,1.82,1.13,7.26,2.03,11.59l-4.45-2.16c-1.06-3.55-1.69-6.71-1.94-8.07,1.04-.19,2.28-.49,3.43-.96.3-.12.61-.26.92-.41Z"/>
  <path class="cls-1" d="M99.69,333.25c1.23,3.72,2.64,7.84,3.53,10.03,0,0,.12.3.3.76,0,0-6.75-2.84-10.46-6.63,0,0-.01-.01-.02-.02-.11-.12-.23-.24-.34-.36-.01-.01-.02-.02-.03-.03-2.57-2.77-4.84-5.76-6.78-8.96.12-.05.24-.11.36-.18.34-.19.63-.44.87-.72l12.58,6.11Z"/>
  <path class="cls-1" d="M88.07,272.03h14.44c-.39.38-.7.67-.92.87h-13.74c.12-.28.19-.57.22-.87Z"/>
  <path class="cls-3" d="M99.71,325.17c.25,1.36.88,4.51,1.94,8.07l-2.34-1.13c-1.19-3.63-2.13-6.61-2.13-6.61,0,0,1.08-.05,2.53-.32Z"/>
  <path class="cls-3" d="M90.96,259.19c1.29-.18,2.99-.31,4.73-.14-.54.5-1.07,1.01-1.59,1.53-2.65,2.65-5.01,5.53-7.05,8.62-.19-.18-.4-.33-.63-.47-.51-.29-1.09-.45-1.67-.45-.22,0-.44.02-.65.06.49-.84,1.16-1.83,1.9-2.84,1.81-2.49,4.01-5.16,4.97-6.31Z"/>
  <path class="cls-1" d="M93.06,337.41c3.71,3.78,10.46,6.62,10.46,6.62.27.7.69,1.77,1.04,2.65-3.79-2.29-7.29-5.03-10.46-8.21-.35-.35-.69-.71-1.04-1.06Z"/>
  <path class="cls-3" d="M89.81,259.38c.33-.06.72-.13,1.16-.19-.96,1.15-3.16,3.82-4.97,6.31l-.86-.39c1.44-2.01,3-3.92,4.67-5.73Z"/>
  <path class="cls-1" d="M86.42,270.34s.07.1.1.15c.02.03.04.06.05.09.03.05.06.1.08.15.02.03.03.07.04.1.02.05.04.1.05.15,0,.02.02.05.02.07,0,.02.01.04.02.06,0,0,0,0,0,0,0,.03.02.07.02.1,0,.03,0,.05.01.08,0,.02,0,.04,0,.07,0,.04,0,.08.01.12,0,.04,0,.09,0,.13,0,.03,0,.07,0,.1,0,.03,0,.06,0,.09,0,.03,0,.06,0,.09,0,.04,0,.07-.02.11,0,.02,0,.03,0,.05,0,.02,0,.04-.01.06,0,.02,0,.03-.01.05,0,.03-.02.06-.03.09,0,.02-.01.04-.02.07-.02.07-.05.13-.08.19,0,.02-.02.03-.02.05-.02.03-.03.07-.05.1-.04.07-.09.14-.13.2-.01.02-.03.04-.05.06-.02.02-.04.05-.06.07-.06.07-.13.14-.2.2-.02.02-.03.03-.05.04-.01.01-.02.02-.04.03-.02.02-.04.03-.07.05,0,0,0,0-.01,0-.03.02-.05.04-.08.05-.06.04-.12.08-.19.11-.03.01-.05.03-.08.04-.1.05-.21.08-.32.11-.01,0-.02,0-.03,0-.01,0-.02,0-.03,0-.02,0-.04,0-.06.01-.02,0-.05.01-.07.01,0,0,0,0,0,0-.03,0-.07.01-.1.01-.04,0-.08,0-.12.01-.04,0-.09,0-.13,0-.03,0-.07,0-.1,0-.02,0-.05,0-.07,0-.02,0-.03,0-.05,0-.02,0-.04,0-.06,0-.03,0-.06,0-.09-.01-.04,0-.08-.01-.12-.03-.04,0-.07-.02-.11-.03h0s-.08-.02-.11-.04c-.03-.01-.07-.02-.1-.04-.08-.03-.16-.07-.23-.11-1.01-.58-1.36-1.88-.77-2.89.17-.3.4-.54.67-.71.65-.42,1.5-.48,2.22-.06.04.02.07.04.11.07.05.03.1.07.15.11.03.02.06.04.08.07,0,0,0,0,.01.01.03.03.07.06.1.09.02.02.04.05.06.07.01.01.03.03.04.05.02.03.04.05.06.08Z"/>
  <path class="cls-1" d="M86.81,272.07s0-.03,0-.05c0,.02,0,.03,0,.05Z"/>
  <path class="cls-1" d="M86.63,272.59s.02-.03.02-.05c0,.02-.01.03-.02.05Z"/>
  <path class="cls-1" d="M86.53,270.49s.04.06.05.09c-.02-.03-.04-.06-.05-.09Z"/>
  <path class="cls-1" d="M85.93,326.57s.05-.05.08-.07c-.03.03-.05.05-.08.07Z"/>
  <path class="cls-1" d="M85.93,326.57s-.04.04-.07.05c.02-.02.04-.04.07-.05Z"/>
  <path class="cls-1" d="M85.62,273.55s.05-.03.08-.04c-.03.02-.05.03-.08.04Z"/>
  <path class="cls-1" d="M85.45,323.04s.05.02.07.03c-.02-.01-.05-.02-.07-.03Z"/>
  <path class="cls-1" d="M84.06,264.64l1.07.48c-.94,1.31-1.83,2.67-2.66,4.05-.25.23-.46.49-.63.79h0c-.17.3-.3.62-.37.95h0c-4.62,8.36-7.27,17.94-7.31,28.14-.31-.28-.69-.48-1.11-.59.11-7.8,1.69-15.37,4.71-22.51,1.7-4.01,3.81-7.79,6.3-11.31Z"/>
  <path class="cls-3" d="M85.03,274.97c.52-.04,1.01-.21,1.44-.47l.44.66,11.85,17.02c-.19,1.02-.4,2.06-.62,3.12l-13.11-20.33Z"/>
  <path class="cls-1" d="M95.05,306.14c-2.62,6.86-7.79,12.08-10.05,14.14v-45.31s.01,0,.02,0l13.11,20.33c-.76,3.57-1.73,7.29-3.08,10.84Z"/>
  <path class="cls-1" d="M84.91,322.87s.06,0,.09.02c-.03,0-.06-.01-.09-.02Z"/>
  <path class="cls-3" d="M84.74,274.98c.09,0,.17,0,.26-.01v45.31c-.38.34-.68.6-.87.76v-46.11c.2.04.4.06.61.06Z"/>
  <path class="cls-1" d="M84.57,327.07c-.73,0-1.44-.38-1.83-1.06-.04-.06-.07-.13-.1-.19-.03-.06-.05-.13-.08-.2-.01-.04-.03-.09-.04-.13-.07-.27-.09-.54-.05-.81,0-.04.01-.09.02-.13h0s.02-.08.03-.11c0-.01,0-.02,0-.04,0-.04.02-.08.03-.11.01-.04.03-.09.05-.13.02-.04.03-.08.05-.12,0,0,0,0,0-.01.02-.04.04-.08.06-.12.02-.04.04-.08.07-.11h0s.05-.08.08-.12c.02-.03.04-.06.07-.09.02-.02.04-.04.06-.06.01-.01.02-.03.04-.04.02-.02.04-.05.07-.07,0,0,0,0,.01-.01.03-.03.06-.05.09-.08.03-.03.06-.05.1-.08,0,0,0,0,0,0h0s0,0,0,0c.03-.02.06-.04.09-.06.03-.02.07-.04.1-.06.04-.02.09-.05.13-.07.03-.02.07-.03.1-.05.05-.02.1-.04.16-.06.02,0,.04-.01.06-.02,0,0,.01,0,.02,0,.02,0,.05-.01.07-.02.03,0,.05-.01.08-.02h0s.05-.01.08-.02c.01,0,.02,0,.04,0,.02,0,.05,0,.08-.01.02,0,.03,0,.05,0,.02,0,.04,0,.07,0,.04,0,.08,0,.12,0,.05,0,.09,0,.13,0,.04,0,.07,0,.11,0,.02,0,.04,0,.07.01,0,0,.02,0,.03,0,.03,0,.06,0,.09.02.02,0,.05,0,.08.02.02,0,.03,0,.05.01.03,0,.07.02.1.03,0,0,0,0,0,0,.04.01.08.03.13.05.03.01.06.02.09.04.02.01.05.02.07.03.02,0,.04.02.06.03,0,0,0,0,0,0h0s.08.05.12.07c.04.02.08.05.11.08.04.03.07.06.11.09.04.03.07.06.1.09.01.01.02.02.03.03,0,0,.02.02.03.03.11.12.21.25.29.39.02.04.05.08.07.12.02.03.03.06.04.1h0s0,0,0,0c.01.03.02.06.03.08,0,0,0,.01,0,.02.01.03.02.05.03.08.01.04.02.08.03.11,0,.04.02.08.03.12,0,.04.01.08.02.12,0,.02,0,.04,0,.06,0,0,0,.01,0,.02,0,.03,0,.06,0,.09,0,.12,0,.24-.01.36,0,.02,0,.04,0,.06,0,.02,0,.05-.01.07,0,.02,0,.04-.01.06,0,.01,0,.03,0,.04,0,.03-.01.06-.02.09,0,.03-.02.06-.03.09-.01.04-.03.08-.05.12-.01.03-.03.07-.04.1,0,0,0,.01,0,.02,0,.01-.01.02-.02.03-.01.03-.03.06-.05.09h0s-.04.07-.06.09c0,.01-.02.03-.03.04-.02.02-.03.05-.05.07-.05.07-.11.15-.18.21-.02.02-.04.04-.06.06,0,0-.01.01-.02.02-.03.02-.05.05-.08.07-.02.02-.04.04-.07.06h0s-.06.05-.1.08c-.01,0-.02.01-.03.02-.03.02-.07.04-.11.07-.04.02-.08.05-.12.07,0,0,0,0,0,0-.04.02-.08.04-.12.06-.04.02-.08.03-.12.04-.01,0-.02,0-.04.01-.03.01-.06.02-.1.03,0,0-.01,0-.02,0-.04,0-.08.02-.12.03,0,0,0,0-.01,0-.03,0-.07.01-.1.02-.04,0-.08.01-.12.01-.02,0-.04,0-.06,0-.04,0-.08,0-.11,0Z"/>
  <path class="cls-1" d="M84.24,273.68s-.07-.02-.11-.03c.04.01.07.02.11.03Z"/>
  <path class="cls-1" d="M84.22,322.87s-.05,0-.08.01c.03,0,.05-.01.08-.01Z"/>
  <path class="cls-1" d="M83.78,274.84c-.54,1.06-1.04,2.15-1.5,3.25-2.87,6.79-4.33,14-4.33,21.44s1.46,14.65,4.33,21.44c.16.39.33.77.5,1.15.04-.02.07-.04.11-.07.38-.22.81-.37,1.24-.42v-46.71c-.12-.02-.24-.05-.35-.09Z"/>
  <path class="cls-1" d="M84.05,322.91s-.05.01-.07.02c.02,0,.05-.02.07-.02Z"/>
  <path class="cls-1" d="M83.96,322.94s-.04.01-.06.02c.02,0,.04-.01.06-.02Z"/>
  <path class="cls-1" d="M83.11,323.43s-.05.04-.07.07c.02-.02.05-.05.07-.07Z"/>
  <path class="cls-3" d="M82.96,327.9c.49.27,1.04.41,1.61.41.45,0,.9-.09,1.32-.27,1.94,3.2,4.2,6.2,6.78,8.96,0,.01.02.02.03.03.11.12.22.24.34.36,0,0,.01.01.02.02.34.36.69.71,1.04,1.06,3.17,3.17,6.67,5.92,10.46,8.21h0c.14.36.27.69.37.94-1.82,1.66-8.44-2.35-12.4-6.87-.92-1.05-1.85-2.19-2.75-3.33h0c-2.98-3.81-5.52-7.58-5.52-7.58l-1.3-1.94Z"/>
  <path class="cls-1" d="M89.78,337.41c-3.28-3.72-5.79-7.19-7.7-10.21.25.28.55.52.88.7h0s1.3,1.94,1.3,1.94c0,0,2.54,3.77,5.52,7.57Z"/>
  <path class="cls-3" d="M82.47,269.17c.83-1.39,1.72-2.74,2.66-4.05l.86.39c-.74,1.02-1.41,2-1.9,2.84-.61.12-1.17.41-1.62.83Z"/>
  <path class="cls-1" d="M76.65,316.26c.38,1.17,1.7,4.83,4.8,9.93.06.15.13.29.21.44.12.2.25.39.41.56,1.91,3.02,4.43,6.49,7.7,10.21h0c.89,1.15,1.83,2.29,2.75,3.34,3.96,4.53,10.59,8.54,12.4,6.87.06.16.12.29.15.38.35.86.22,1.3-.56,2.02-.2.19-.46.29-.78.33-12.89-7.42-22.72-19.58-27.09-34.09Z"/>
  <path class="cls-1" d="M74.1,308.88c.47,2.14,1.37,4.59,2.43,6.98,0,0,0,0,0,0,0,0,0,0,0,0,0,0,0,.02,0,.04,0,.02.01.04.02.06,0,0,0,.02,0,.03,0,.04.02.07.03.11,0,.02,0,.03.02.05,0,.02.01.03.02.05s.01.04.02.05c4.37,14.5,14.2,26.67,27.09,34.09-.91.1-2.26-.36-3.92-1.09h0s0,0,0,0c-3.29-2.19-6.36-4.71-9.2-7.54-5.51-5.51-9.84-11.92-12.86-19.07-1.87-4.43-3.19-9.02-3.95-13.73l.29-.05Z"/>
  <path class="cls-3" d="M143.39,343.48l.38.78h.01c-.36.71-2.19,4.3-4.39,7.09-1.05,1.33-2.18,2.47-3.27,3.03l-.23.16s-.02.01-.05.02c0,0-2.9,1.29-5.55,0-.03-.01-.05-.02-.05-.02l-.23-.16c-1.09-.56-2.22-1.7-3.27-3.03-2.2-2.78-4.03-6.37-4.39-7.09h.01s.38-.77.38-.77l.06-.03c.45.84.87,1.59,1.28,2.26,1.06,1.77,2.01,3.09,2.9,4.54,0,0,.01.02.02.03h0c1.37,2.21,3.05,3.38,3.05,3.38,0,0,.84.81,2.27.95h0c.23.02.48.03.74,0,.26.02.51.02.74,0h0c1.43-.13,2.27-.95,2.27-.95,0,0,1.68-1.17,3.05-3.38h0s.01-.02.02-.03c.89-1.45,1.84-2.77,2.9-4.54.41-.68.83-1.42,1.28-2.26l.06.03Z"/>
  <path class="cls-3" d="M189.61,315.89c-.14.39-1.89,5.06-5.13,10.74.29-.5.44-1.05.45-1.61h0c1.25-2.17,3.12-5.6,4.68-9.14Z"/>
  <path class="cls-3" d="M191.87,303.11c-.28,4.4-1.05,8.67-2.25,12.75,0,0,0,0,0,0,0,0,0,0,0,0,0,0,0,0,0,.01-1.56,3.54-3.44,6.97-4.68,9.14,0-.31-.03-.63-.11-.94-.22-.82-.73-1.52-1.45-1.97.17-.38.34-.77.5-1.15,2.87-6.79,4.33-14,4.33-21.44s-1.46-14.65-4.33-21.44c-.47-1.1-.97-2.19-1.5-3.25.25-.07.49-.18.71-.31.78-.45,1.33-1.17,1.56-2.03.14-.53.15-1.07.04-1.59,4.59,8.3,7.24,17.82,7.31,27.95"/>
  <path class="cls-3" d="M183.36,322.12c.72.45,1.23,1.14,1.45,1.97.08.31.12.62.11.94h0c-.82,1.43-1.37,2.32-1.37,2.32l-.37.55h0c-.49.27-1.04.41-1.61.41-.45,0-.9-.09-1.32-.27.22-.36.43-.72.64-1.08.01,0,.02,0,.04.01.03.01.06.02.1.03,0,0,.01,0,.02,0,.04,0,.08.02.12.03,0,0,0,0,.01,0,.03,0,.07.01.1.02.04,0,.08.01.13.01.02,0,.04,0,.06,0,.03,0,.07,0,.11,0,.73,0,1.44-.38,1.83-1.06.03-.06.07-.13.1-.19.03-.06.05-.13.08-.2.01-.04.03-.09.04-.13.07-.27.09-.54.05-.81,0-.05-.01-.09-.02-.13h0s-.01-.08-.02-.11c0-.01,0-.02,0-.04-.01-.04-.02-.08-.03-.11-.01-.04-.03-.08-.05-.13-.01-.04-.03-.08-.05-.12,0,0,0,0,0-.01-.02-.04-.04-.08-.06-.12-.02-.04-.04-.08-.07-.11h0s-.05-.08-.08-.12c-.02-.03-.04-.06-.07-.09-.02-.02-.03-.04-.06-.06-.01-.01-.02-.03-.04-.04-.02-.02-.04-.05-.07-.07,0,0,0,0-.01-.01-.01-.01-.03-.03-.04-.04h0s-.03-.03-.05-.04c-.03-.03-.06-.05-.1-.08,0,0,0,0,0,0h0c.18-.38.36-.76.53-1.14Z"/>
  <path class="cls-3" d="M183.55,327.34s.55-.88,1.37-2.31c-.01.56-.16,1.11-.45,1.61-.31.54-.76.97-1.29,1.26l.37-.55Z"/>
  <path class="cls-3" d="M183.25,322.05s.07.04.11.07c-.17.38-.35.76-.53,1.14,0,0,0,0,0,0-.01-.01-.03-.02-.05-.03-.01-.01-.03-.02-.05-.03-.03-.02-.07-.04-.1-.06-.04-.02-.09-.05-.13-.07-.03-.02-.07-.03-.1-.05-.05-.02-.1-.04-.16-.06-.02,0-.04-.01-.06-.02,0,0-.01,0-.02,0-.02,0-.05-.01-.07-.02-.03,0-.05-.01-.08-.02v-1.26c.43.06.86.2,1.24.42Z"/>
  <path class="cls-3" d="M182.01,321.5v.14s-.08,0-.11-.01l.11-.12Z"/>
  <path class="cls-3" d="M181.14,320.27c.38.34.68.6.87.76v.46l-.11.12c-.1,0-.21-.01-.32-.01-.15,0-.29,0-.44.03v-1.36h0Z"/>
  <path class="cls-3" d="M180.36,273.87l-.49.74c-.57-.29-1.05-.74-1.38-1.31-.08-.13-.15-.27-.2-.41-.11-.28-.19-.57-.22-.87-.06-.49,0-.98.14-1.44.09-.27.22-.54.37-.78.14-.22.31-.42.51-.6.19-.18.4-.33.63-.47.51-.29,1.09-.45,1.67-.45.22,0,.44.02.65.06.61.12,1.17.41,1.63.83.25.23.46.49.63.79h0c.17.3.3.62.37.95,0,0,0,0,0,0,.11.52.1,1.06-.04,1.59-.23.86-.79,1.59-1.56,2.03-.23.13-.47.23-.71.31-.11.03-.23.06-.35.09-.2.04-.4.06-.61.06h-.02l.06-.09-1.08-1.02ZM179.49,272.54s.01.03.02.05c.02.03.03.07.05.1.04.07.09.14.14.2.01.02.03.04.05.06.02.02.03.05.06.07.06.07.13.14.2.2.02.02.03.03.05.04.01.01.02.02.03.03.01,0,.02.02.03.03.01,0,.02.02.03.02,0,0,0,0,.01.01.02.02.05.04.08.05.06.04.12.08.19.11.02.01.05.03.08.04.1.05.21.09.32.11.01,0,.02,0,.03,0,.01,0,.02,0,.03,0,.02,0,.04,0,.06.01.02,0,.05.01.07.01,0,0,0,0,0,0,.03,0,.07.01.1.01.04,0,.08,0,.12.01.04,0,.09,0,.13,0,.03,0,.07,0,.1,0,.02,0,.05,0,.07,0,.02,0,.03,0,.05,0,.02,0,.04,0,.06,0,.03,0,.06,0,.09-.01.04,0,.08-.01.12-.03.04,0,.07-.02.11-.03h0s0,0,0,0h0s.02,0,.02,0c.03,0,.06-.02.09-.03.03-.01.07-.02.1-.04.08-.03.16-.07.23-.11,1.01-.58,1.36-1.88.77-2.89-.19-.34-.47-.6-.79-.78-.63-.36-1.43-.38-2.1,0-.04.02-.07.04-.11.07-.05.03-.1.07-.15.11-.03.02-.06.04-.08.07,0,0-.01,0-.01.01-.03.03-.07.06-.1.09-.02.02-.04.05-.06.07-.01.01-.03.03-.04.05-.02.03-.04.05-.06.08-.04.05-.07.1-.1.15-.02.03-.04.06-.05.09-.03.05-.06.1-.08.15-.01.03-.03.07-.04.1-.02.05-.04.1-.05.15,0,.02-.02.05-.02.07,0,.02-.01.04-.02.06,0,0,0,0,0,0,0,.03-.02.07-.02.1,0,.03-.01.05-.01.08,0,.02,0,.04,0,.07,0,.04-.01.08-.01.12,0,.04,0,.09,0,.13,0,.03,0,.07,0,.1,0,.03,0,.06,0,.09,0,.03,0,.06,0,.09,0,.04.01.07.02.11,0,.02,0,.03.01.05,0,.02,0,.04.01.06,0,.02,0,.03.01.05,0,.03.02.06.03.09,0,.02.01.04.02.07.02.07.05.13.08.19Z"/>
  <path class="cls-3" d="M181.14,274.97c-.45-.03-.88-.16-1.27-.36l.49-.74,1.08,1.02-.06.09c-.08,0-.16,0-.24-.01Z"/>
  <path class="cls-3" d="M181.14,321.98c.13.01.27.03.4.03l-.4.44v-.48Z"/>
  <path class="cls-3" d="M181.14,321.64c.14-.02.29-.03.44-.03.11,0,.21,0,.32.01l-.35.39c-.13,0-.27-.02-.4-.03v-.34Z"/>
  <path class="cls-3" d="M181.33,322.86s-.04,0-.07,0c-.01,0-.02,0-.03,0-.03,0-.06,0-.09.02v-.43l.4-.44.35-.39s.07,0,.11.01v1.26s0,0,0,0c-.02,0-.05-.01-.08-.01-.01,0-.02,0-.04,0-.02,0-.05,0-.08-.01-.02,0-.03,0-.05,0-.02,0-.04,0-.06,0-.04,0-.08,0-.12,0-.05,0-.09,0-.14,0-.04,0-.07,0-.11,0Z"/>
  <path class="cls-3" d="M181.14,321.63c-.29.04-.57.11-.84.22-7.35-1.36-12.07-10.23-13.19-13.9-1.19-3.91-2.81-9.53-3.72-18.61,0-.03,0-.06,0-.09-.8-7.87-2.74-13.95-3.23-15.39,2.27.37,3.89.34,3.89.34,0,0,.2.95,1.42,6.96.61,2.99,1.16,6.97,1.98,11.32l-1.65,2.37,1.7,1.64.58-.89c.75,3.48,1.7,7.08,3.01,10.52,2.61,6.86,7.79,12.08,10.05,14.14v1.36h0Z"/>
  <path class="cls-3" d="M180.3,321.86c.27-.11.55-.18.84-.22v.34c-.28-.03-.56-.07-.84-.12Z"/>
  <path class="cls-3" d="M180.3,321.86c.28.05.56.09.84.12v.48l-.59.65h0s-.08.05-.12.07c-.04.02-.08.05-.11.08-.04.03-.07.06-.11.09-.03.03-.07.06-.1.09-.02.02-.04.04-.06.06-.11.12-.21.25-.29.39-.02.04-.05.08-.07.12-.02.03-.03.06-.04.1h0s0,0,0,0l-.05.06c-.42.03-.84.03-1.27.02.07-.32.19-.63.36-.92.38-.65.96-1.15,1.63-1.42Z"/>
  <path class="cls-3" d="M180.52,326.79s.08.05.12.06c0,0,0,0,0,0,.04.02.08.04.12.06.04.02.08.03.12.04-.21.36-.42.72-.64,1.08-.12-.05-.24-.11-.36-.18-.34-.19-.63-.44-.87-.72l1.18-.57s.05.04.07.06c.03.02.06.05.1.07.01,0,.02.01.03.02.03.02.07.05.11.07Z"/>
  <path class="cls-3" d="M180.55,323.11l.59-.65v.43s-.05,0-.08.02c-.02,0-.03,0-.05.01-.03,0-.07.02-.1.03,0,0,0,0,0,0-.04.01-.09.03-.13.05-.03.01-.06.02-.09.04-.02,0-.05.02-.07.03-.02,0-.04.02-.06.03,0,0,0,0-.01,0Z"/>
  <path class="cls-3" d="M179.67,325.87s.01.02.02.03c.01.03.03.06.05.09h0s.03.07.06.09c0,.01.02.03.03.04.02.02.03.05.05.07.05.07.11.15.18.21.01.01.02.02.03.03.01.01.02.02.03.03,0,0,.01.01.02.02.03.03.05.05.08.07l-1.18.57c-.19-.22-.35-.47-.48-.73l1.11-.54Z"/>
  <path class="cls-3" d="M179.62,270.49s-.04.06-.05.09c.01-.03.03-.06.05-.09Z"/>
  <path class="cls-3" d="M178.31,324.21c.43.01.85,0,1.27-.02l.05-.06s-.02.06-.03.08c0,0,0,.01,0,.02,0,.01-.01.03-.01.04h0s0,.03-.01.04c-.01.04-.02.08-.03.11-.01.04-.02.08-.03.12,0,.04-.01.08-.02.12,0,.02,0,.04,0,.06,0,0,0,.01,0,.02,0,.03,0,.06,0,.09,0,.12,0,.24.01.36,0,.02,0,.04,0,.06,0,.02,0,.05.01.07,0,.02,0,.04.01.06,0,.01,0,.03,0,.04,0,.03.01.06.02.09,0,.03.02.06.03.09.01.04.03.08.04.12.01.03.03.07.04.1,0,0,0,.01,0,.02l-1.11.54c-.33-.68-.42-1.46-.25-2.21Z"/>
  <path class="cls-3" d="M178.55,326.41c.12.26.28.51.48.73l-12.58,6.11c.13-.39.25-.77.38-1.15l11.72-5.69Z"/>
  <path class="cls-3" d="M175.18,259.19l1.1.14s.03.04.05.05c-.33-.06-.72-.13-1.16-.19Z"/>
  <path class="cls-3" d="M168.96,325.49s-.94,2.99-2.13,6.61l-2.34,1.13c1.06-3.55,1.69-6.71,1.94-8.07,1.45.26,2.53.32,2.53.32Z"/>
  <path class="cls-3" d="M168.07,295.62l-.58.89-1.7-1.64,1.65-2.37c.19,1.02.4,2.07.63,3.12Z"/>
  <path class="cls-3" d="M164.49,333.24l2.34-1.13c-.12.38-.25.76-.38,1.15l-2.31,1.12c.12-.38.24-.76.35-1.13Z"/>
  <path class="cls-3" d="M164.55,272.89h-1.22v-.87h.3c.39.38.7.67.92.87Z"/>
  <path class="cls-3" d="M162.63,344.04c-.08.04-1.41-.91-2.04-1.37.09-.15.18-.3.26-.44,1.35-2.38,2.45-5.18,3.3-7.85l2.31-1.12c-1.23,3.72-2.64,7.84-3.53,10.03,0,0-.12.3-.29.76Z"/>
  <path class="cls-3" d="M142.28,256.77c.71.42,1.4.88,2.08,1.35.68.47,1.34.97,1.98,1.5,1.29,1.04,2.52,2.16,3.68,3.37-.99-1.35-2.14-2.58-3.36-3.74-1.23-1.15-2.55-2.21-3.97-3.13-.71-.46-1.44-.89-2.2-1.28-.76-.38-1.54-.72-2.35-1.02-.2-.07-.41-.14-.61-.2-.1-.03-.2-.07-.31-.1l-.31-.08c-.21-.05-.41-.12-.62-.16l-.63-.14c-.21-.05-.42-.07-.64-.1l-.32-.05c-.11-.01-.21-.02-.32-.03-.21-.02-.43-.04-.64-.06h-.21v-3.64c6.52.13,11.07,1.85,14.49,4.31l2.57,3.77,2.54,1.22c1.2,1.52,2.25,3.09,3.26,4.62,2.82,4.28,5.67,7.32,7.25,8.86h-.3v.87h1.22c.2.18.31.27.32.29-2.18-.28-4.3-.82-6.33-1.52h0c-2.15-1.13-4.3-2.66-7.04-4.8-2.74-2.14-4.54-3.94-8.77-6.78-3.74-2.51-8.21-2.8-9.2-2.83v-3.37h.15c.2.02.4.04.6.06.1,0,.2.02.3.03l.3.04c.2.03.4.05.6.09.8.14,1.58.36,2.35.61.77.26,1.53.57,2.27.91.37.18.74.36,1.1.55.37.19.72.4,1.08.6Z"/>
  <path class="cls-3" d="M156.2,337.26l3.84-1.87c-.08.37-.15.73-.23,1.07l-3.78,1.83c.06-.34.11-.69.16-1.04Z"/>
  <path class="cls-3" d="M159.82,336.47c.08-.35.15-.71.23-1.07l4.45-2.16c-.11.37-.23.75-.35,1.13l-4.32,2.1Z"/>
  <path class="cls-3" d="M151.76,256.93l-.58-.28-.73-1.07c.46.44.9.89,1.32,1.35Z"/>
  <path class="cls-3" d="M150.45,255.58c-.74-.71-1.55-1.39-2.42-2.02l-5.68-8.34c.4.07.8.14,1.19.22l6.91,10.14Z"/>
  <path class="cls-3" d="M153.13,258.54l-2.54-1.22-2.57-3.77c.88.63,1.68,1.31,2.42,2.02l.73,1.07.58.28c.48.53.93,1.07,1.37,1.62Z"/>
  <path class="cls-3" d="M143.33,343.45c.18-.34.37-.7.56-1.08.94-1.87,1.66-3.1,2.23-4.08h0c.56-.98.98-1.72,1.32-2.61.69-1.8,1.87-6.01,2.19-9.69.24-2.84-.52-5.74-1.75-8.34-.36-.76-.76-1.49-1.19-2.19-1.89-3.09-8.7-7.72-9.5-8.13-.79-.41-.57-.69-.34-.86.23-.17,2.47-1.47,2.47-1.47,0,0,3.43,1.15,6.22,3.63,2.78,2.48,3.65,4.13,3.65,4.13,0,0-2.8-7.2-2.31-7.36.48-.16,4.37,2.27,5.73,5.89,1.36,3.62,1.07,11.11,0,15.28-1.07,4.17-3.42,7.6-4.91,10.51-.99,1.94-2.37,4.42-3.18,5.87l-1.12.55-.06-.03Z"/>
  <path class="cls-3" d="M156.04,338.3l-12.26,5.95c.04-.08.06-.13.06-.13,0,0,.26-.47.67-1.19l11.68-5.67c-.05.36-.1.7-.16,1.04Z"/>
  <path class="cls-3" d="M143.77,344.26l-.38-.78,1.12-.55c-.41.73-.67,1.19-.67,1.19,0,0-.02.04-.06.13h-.01Z"/>
  <path class="cls-3" d="M141.63,242.63l1.91,2.8c-.4-.08-.79-.15-1.19-.22h0l-1.43-2.1.72-.49Z"/>
  <path class="cls-3" d="M142.34,245.22c-1.95-.33-3.93-.56-5.93-.68-.1-1.76-1.56-3.16-3.35-3.16v-.96c10.32,0,20.02,2.66,28.47,7.34,5.52,3.05,10.49,6.97,14.75,11.56l-1.1-.14c-1.29-.18-2.99-.31-4.73-.14-4.69-4.34-10.04-7.79-15.93-10.28-3.55-1.5-7.23-2.62-10.98-3.34l-1.91-2.8-.72.49,1.43,2.1Z"/>
  <path class="cls-3" d="M151.8,288.78s-1.36,3.03-3.88,7.77c-2.52,4.75-3.05,7.57-3.2,8.49-.1.59.17,1.1.38,1.38-.07.25-.1.49-.09.74,0,0-1.01-.99-2.08-1.66-.05-.61-.16-1.99-.36-3-.26-1.34-.44-2.52-1.51-4.06-1.06-1.55-2-2.43-2.37-3.8-.37-1.38-.18-5-.16-5.09.02-.08.68-.68,1.16-1.03,1.18-.02,1.81.7,3.04,1.66,1.23.96,2.38,1.31,3.98.62,1.6-.68,5.08-2.02,5.08-2.02Z"/>
  <path class="cls-3" d="M130.96,244.74c0,1.17.95,2.11,2.11,2.11s2.11-.95,2.11-2.11c0-.09,0-.17-.02-.25-.12-1.05-1.02-1.86-2.1-1.86s-1.97.81-2.1,1.86c-.01.08-.02.17-.02.25ZM133.07,241.39c1.78,0,3.25,1.4,3.35,3.16,0,.06,0,.13,0,.19,0,1.85-1.5,3.35-3.35,3.35s-3.35-1.5-3.35-3.35c0-.07,0-.13,0-.19.1-1.76,1.57-3.16,3.35-3.16Z"/>
  <path class="cls-3" d="M133.07,240.43v.96c-1.78,0-3.25,1.4-3.35,3.16-2,.12-3.97.34-5.93.68l1.43-2.1-.72-.49-1.91,2.8c-3.76.72-7.43,1.83-10.98,3.34-5.89,2.49-11.24,5.94-15.93,10.28-1.74-.17-3.44-.04-4.73.14-.44.06-.83.13-1.16.19,10.77-11.65,26.18-18.96,43.26-18.96Z"/>
  <path class="cls-3" d="M148.51,279.57c-.47-2.61-2.23-6.37-4.74-9.23-2.42-2.76-7.33-4.76-10.69-4.84v16.46c-.18,1.85-.54,3.09-.84,5.82-.42,3.77-.17,11.89-.17,14.53,0,2.13.73,3.71,1.01,4.24v.03c1.09-.13,2.6-1.49,2.92-1.99s.34-.99.47-.99,1.35.37,1.99.27c.63-.1,1.27-.66,1.49-.96.22-.3.19-.55-.39-1.33-.59-.78-1.34-1.02-2.07-.5-.72.52-1.56.82-1.56.82,0,0-.44-.06-.44-3.11,0-2.63,0-5.96.01-9.05,0-.5,0-.99,0-1.47,0-3.47,1.01-4.54,2.17-4.83,1.15-.28,4.91-.38,8.47-.13.67.05,1.34.19,1.97.39.25-.58.78-2.1.42-4.12Z"/>
  <path class="cls-3" d="M136.77,311.76c-2.59.19-3.7,1.32-3.7,1.32,0,0-1.1-1.14-3.7-1.32-2.45-.18-5.03,1.7-6.68,4,.31.38,1.16,1.13,2.94,1.19,2.35.07,4.59-1.07,4.66-1.1h0s1.17.96,2.78,1.09c1.61-.13,2.78-1.09,2.78-1.09h0c.07.04,2.31,1.17,4.66,1.1,1.79-.06,2.63-.81,2.94-1.19-1.65-2.29-4.23-4.17-6.68-4Z"/>
  <path class="cls-3" d="M137.12,321.9c-.18-.2-.39-.45-.66-.77-.19-.22-.34-.39-.48-.54h-5.8c-.14.15-.3.32-.48.54-.27.32-.48.56-.66.77,0,0-.46,3.61.01,5.65.47,2.04,1.79,3.56,2.73,5.7.15.34.27.69.39,1.03.04.14.09.28.12.42.48,1.71.59,3.33.8,3.64.21-.31.32-1.93.8-3.64.04-.14.08-.28.13-.42.11-.35.24-.7.39-1.03.94-2.14,2.26-3.66,2.73-5.7.47-2.04.01-5.65.01-5.65Z"/>
  <path class="cls-3" d="M126.6,301.57c.59-.78,1.34-1.02,2.07-.5.72.52,1.56.82,1.56.82,0,0,.44-.06.44-3.11,0-2.63-.01-5.96-.01-9.05,0-.5,0-.99,0-1.47,0-3.47-1.01-4.54-2.17-4.83-1.15-.28-4.91-.38-8.47-.13-.67.05-1.34.19-1.97.39-.25-.58-.78-2.1-.42-4.12.47-2.61,2.23-6.37,4.74-9.23,2.42-2.76,7.33-4.76,10.69-4.84v16.46c-.18,1.85-.54,3.09-.84,5.82-.42,3.77-.17,11.89-.17,14.53,0,2.13.73,3.71,1.01,4.24v.03c-1.09-.13-2.6-1.49-2.92-1.99s-.34-.99-.47-.99-1.35.37-1.99.27c-.63-.1-1.27-.66-1.49-.96-.22-.3-.2-.55.39-1.33Z"/>
  <path class="cls-3" d="M125.23,243.12l-1.43,2.1h0c-.4.07-.8.14-1.19.22l1.91-2.8.72.49Z"/>
  <path class="cls-3" d="M123.8,245.22l-5.68,8.34c-.88.63-1.68,1.31-2.42,2.02l6.91-10.14c.4-.08.79-.15,1.19-.22Z"/>
  <path class="cls-3" d="M122.75,343.48l-.38.78h-.01c-.04-.09-.06-.13-.06-.13,0,0-.26-.47-.67-1.19l1.13.55Z"/>
  <path class="cls-3" d="M121.62,342.93c.41.73.67,1.19.67,1.19,0,0,.02.04.06.13l-12.26-5.95c-.06-.34-.11-.69-.16-1.04l11.68,5.67Z"/>
  <path class="cls-3" d="M126.82,304.99s2.24,1.3,2.47,1.47c.23.17.45.45-.34.86-.79.41-7.61,5.03-9.5,8.13-.43.7-.83,1.43-1.19,2.19-1.23,2.6-1.99,5.49-1.75,8.34.31,3.67,1.49,7.89,2.19,9.69.35.9.76,1.63,1.32,2.61h0c.57.99,1.28,2.22,2.23,4.09.19.38.38.74.56,1.08l-.06.03-1.12-.55c-.81-1.45-2.19-3.94-3.18-5.87-1.49-2.91-3.85-6.34-4.91-10.51-1.07-4.17-1.36-11.66,0-15.28,1.36-3.62,5.25-6.04,5.73-5.89.48.16-2.31,7.36-2.31,7.36,0,0,.87-1.64,3.65-4.13,2.78-2.48,6.21-3.63,6.21-3.63Z"/>
  <path class="cls-3" d="M118.12,253.56l-2.57,3.77-2.54,1.22c.43-.55.89-1.09,1.37-1.62l.58-.28.73-1.07c.74-.71,1.55-1.39,2.42-2.02Z"/>
  <path class="cls-3" d="M115.69,255.58l-.73,1.07-.58.28c.42-.46.86-.91,1.32-1.35Z"/>
  <path class="cls-3" d="M110.1,338.3l-3.78-1.83c-.08-.35-.15-.71-.23-1.07l3.84,1.87c.05.35.1.7.16,1.04Z"/>
  <path class="cls-3" d="M106.32,336.47l-4.32-2.1c-.12-.38-.24-.76-.35-1.13l4.45,2.16c.08.37.15.73.23,1.07Z"/>
  <path class="cls-3" d="M102.09,274.21s1.62.02,3.89-.34c-.49,1.44-2.43,7.52-3.23,15.39,0,.03,0,.06,0,.09-.91,9.08-2.53,14.7-3.72,18.61-1.12,3.67-5.83,12.54-13.19,13.9-.27-.11-.55-.18-.84-.22v-1.36c2.26-2.06,7.44-7.28,10.05-14.14,1.35-3.55,2.32-7.27,3.08-10.84l.78,1.21,1.7-1.64-1.86-2.68c.79-4.23,1.33-8.09,1.92-11.01,1.22-6.02,1.42-6.97,1.42-6.97Z"/>
  <path class="cls-3" d="M102.81,272.02v.87h-1.22c.21-.19.53-.48.92-.87h.3Z"/>
  <path class="cls-3" d="M102,334.37l-2.31-1.12c-.13-.39-.25-.77-.38-1.15l2.34,1.13c.11.38.23.75.35,1.13Z"/>
  <path class="cls-3" d="M107.6,271.65c-2.03.71-4.14,1.24-6.33,1.52,0,0,.11-.1.32-.29h1.22v-.87h-.3c1.58-1.54,4.43-4.58,7.25-8.86,1-1.52,2.05-3.1,3.26-4.62l2.54-1.22,2.57-3.77c3.43-2.46,7.97-4.18,14.49-4.31v3.64h-.21c-.22.02-.43.05-.64.07-.11.01-.22.02-.32.03l-.32.05c-.21.04-.43.06-.64.1l-.63.14c-.21.04-.42.11-.62.16l-.31.08c-.1.03-.2.07-.31.1-.2.07-.41.13-.61.2-.8.29-1.59.64-2.35,1.02-.76.38-1.49.82-2.2,1.28-1.42.93-2.74,1.98-3.97,3.13-1.22,1.16-2.37,2.39-3.36,3.74,1.16-1.21,2.39-2.33,3.68-3.37.64-.52,1.3-1.03,1.98-1.5.68-.47,1.36-.93,2.08-1.35.36-.2.71-.41,1.08-.6.36-.2.73-.38,1.1-.55.74-.34,1.5-.65,2.27-.91.77-.25,1.56-.47,2.35-.61.2-.04.4-.06.6-.09l.3-.04c.1-.01.2-.02.3-.03.2-.02.4-.04.6-.05h.15s0,3.36,0,3.36c-.99.03-5.46.33-9.2,2.83-4.23,2.84-6.03,4.64-8.77,6.78-2.74,2.14-4.89,3.68-7.04,4.8Z"/>
  <path class="cls-3" d="M98.75,292.19l1.86,2.68-1.7,1.64-.78-1.21c.23-1.05.43-2.1.62-3.11Z"/>
  <path class="cls-3" d="M99.69,333.25l-12.58-6.11c.19-.22.35-.47.48-.73l11.73,5.69c.12.38.25.76.38,1.15Z"/>
  <path class="cls-3" d="M86.42,268.73c.23.13.44.29.63.47.19.18.36.39.51.6.16.24.28.51.37.78.15.46.2.95.14,1.44-.03.29-.11.58-.22.87-.06.14-.12.28-.2.41-.29.5-.7.91-1.18,1.19l-.42-.63-1.08,1.02.05.08s-.01,0-.02,0c-.08,0-.17.01-.26.01-.2,0-.41-.02-.61-.06-.12-.02-.24-.05-.35-.08-.25-.07-.49-.18-.71-.31-.77-.45-1.33-1.17-1.56-2.03-.14-.53-.15-1.07-.04-1.59h0c.07-.33.2-.65.37-.95h0c.17-.3.38-.56.63-.79.45-.42,1.02-.7,1.63-.83.21-.04.43-.06.65-.06.58,0,1.16.16,1.67.45ZM83.69,273.46c.08.04.15.08.23.11.03.01.07.03.1.04.04.01.07.03.11.04h0s.07.02.11.03c.04.01.08.02.12.03.03,0,.06.01.09.01.02,0,.04,0,.06,0,.01,0,.03,0,.05,0,.02,0,.05,0,.07,0,.03,0,.07,0,.1,0,.04,0,.09,0,.13,0,.04,0,.08,0,.12-.01.03,0,.07,0,.1-.01,0,0,0,0,0,0,.02,0,.05,0,.07-.01.02,0,.04,0,.06-.01,0,0,.02,0,.03,0,0,0,.02,0,.03,0,.11-.03.21-.07.32-.11.03-.01.05-.02.08-.04.06-.03.13-.07.19-.11.03-.02.05-.03.08-.05,0,0,0,0,.01-.01.02-.02.05-.03.07-.05.01,0,.02-.02.04-.03.02-.01.04-.03.05-.04.07-.06.14-.13.2-.2.02-.02.04-.04.06-.07.02-.02.03-.04.05-.06.05-.06.09-.13.13-.2.02-.03.04-.07.05-.1,0-.02.02-.03.02-.05.03-.06.06-.13.08-.19,0-.02.02-.04.02-.07.01-.03.02-.06.03-.09,0-.02,0-.03.01-.05,0-.02.01-.04.01-.06,0-.02,0-.03,0-.05,0-.03.01-.07.02-.11,0-.03,0-.06,0-.09,0-.03,0-.06,0-.09,0-.03,0-.07,0-.1,0-.04,0-.09,0-.13,0-.04,0-.08-.01-.12,0-.02,0-.04,0-.07,0-.03,0-.05-.01-.08,0-.03-.01-.07-.02-.1h0s-.01-.05-.02-.07c0-.02-.01-.05-.02-.07-.01-.05-.03-.1-.05-.15-.01-.04-.03-.07-.04-.1-.02-.05-.05-.1-.08-.15-.02-.03-.03-.06-.05-.09-.03-.05-.07-.1-.1-.15-.02-.03-.04-.05-.06-.08-.01-.02-.03-.03-.04-.05-.02-.02-.04-.05-.06-.07-.03-.03-.06-.06-.1-.09,0,0,0,0-.01-.01-.03-.02-.05-.05-.08-.07-.05-.04-.1-.08-.15-.11-.03-.02-.07-.05-.11-.07-.71-.41-1.57-.36-2.22.06-.27.18-.5.41-.67.71-.58,1.01-.24,2.3.77,2.89Z"/>
  <path class="cls-3" d="M85.84,321.86c.68.28,1.26.77,1.63,1.42.17.3.29.61.36.92.17.75.08,1.53-.25,2.21-.12.26-.28.51-.48.73-.24.28-.53.52-.87.72-.11.07-.23.13-.36.18-.42.18-.87.27-1.32.27-.57,0-1.12-.15-1.61-.41h0c-.33-.18-.63-.42-.88-.7-.15-.17-.29-.36-.41-.56-.08-.14-.15-.29-.21-.44-.15-.38-.23-.77-.24-1.17h0c0-.31.03-.63.11-.94.22-.82.73-1.52,1.45-1.97.04-.02.07-.04.11-.07.38-.22.81-.37,1.24-.42.04,0,.08,0,.11-.01.1,0,.21-.01.32-.01.15,0,.29,0,.44.03.29.04.57.12.84.23ZM83.31,323.26s0,0,0,0c-.03.02-.07.05-.1.08-.03.03-.06.05-.09.08,0,0,0,0-.01.01-.02.02-.05.04-.07.07-.01.01-.03.03-.04.04-.02.02-.04.04-.06.06-.02.03-.05.06-.07.09-.03.04-.05.07-.08.11h0s-.05.08-.07.12c-.02.04-.04.08-.06.12,0,0,0,0,0,.01-.02.04-.04.08-.05.12-.02.04-.03.08-.05.13-.01.04-.02.07-.03.11,0,.01,0,.02,0,.04-.01.04-.02.07-.03.11h0s-.02.09-.02.14c-.03.27-.02.54.05.81.01.04.03.09.04.13.02.07.05.13.08.2.03.06.06.13.1.19.39.68,1.1,1.06,1.83,1.06.04,0,.07,0,.11,0,.02,0,.04,0,.06,0,.04,0,.08,0,.12-.01.03,0,.07-.01.1-.02,0,0,0,0,0,0,.04,0,.08-.02.12-.03,0,0,.01,0,.02,0,.03,0,.07-.02.1-.03.01,0,.02,0,.04-.01.04-.01.08-.03.12-.04.04-.02.08-.04.12-.06,0,0,0,0,0,0,.04-.02.08-.04.12-.07.04-.02.07-.04.11-.06.01,0,.02-.01.03-.02.03-.02.07-.05.1-.07h0s.04-.04.07-.06h0s.05-.05.08-.08c0,0,.01,0,.02-.02.02-.02.04-.04.06-.06.07-.07.13-.14.18-.21.02-.02.03-.05.05-.07,0-.01.02-.03.03-.04.02-.03.04-.06.06-.09h0s.03-.06.05-.09c0-.01.01-.02.02-.03,0,0,0-.01,0-.02.02-.03.03-.07.04-.1.02-.04.03-.08.05-.12.01-.03.02-.06.03-.09,0-.03.02-.06.02-.09,0-.01,0-.03,0-.04,0-.02,0-.04.01-.06,0-.02,0-.05.01-.07,0-.02,0-.04,0-.06.01-.12.02-.24.01-.36,0-.03,0-.06,0-.09,0,0,0-.01,0-.02,0-.02,0-.04,0-.06,0-.04-.01-.08-.02-.12,0-.04-.02-.08-.03-.12,0-.04-.02-.08-.03-.11,0-.03-.02-.05-.03-.08,0,0,0-.02,0-.02,0-.03-.02-.06-.03-.08,0,0,0,0,0,0h0s-.03-.06-.04-.1c-.02-.04-.04-.08-.07-.12-.08-.14-.18-.28-.29-.39,0-.01-.02-.02-.03-.03,0-.01-.02-.02-.03-.03-.03-.03-.07-.07-.1-.09-.04-.03-.07-.06-.11-.09-.04-.03-.08-.05-.11-.08-.04-.03-.08-.05-.12-.07h0s0,0,0,0c-.02-.01-.04-.02-.06-.03-.02-.01-.05-.02-.07-.03-.03-.01-.06-.03-.09-.04-.04-.02-.08-.03-.13-.05,0,0,0,0,0,0-.03-.01-.07-.02-.1-.03-.02,0-.04,0-.05-.01-.03,0-.05-.01-.08-.02-.03,0-.06-.01-.09-.02,0,0-.02,0-.03,0-.02,0-.04,0-.07-.01-.04,0-.07,0-.11,0-.04,0-.09,0-.13,0-.04,0-.08,0-.12,0-.02,0-.04,0-.07,0-.02,0-.04,0-.05,0-.02,0-.05,0-.08.01-.01,0-.02,0-.04,0-.03,0-.05,0-.08.01h0s-.05.01-.08.02c-.02,0-.05.01-.07.02,0,0-.01,0-.02,0-.02,0-.04.01-.06.02-.05.02-.1.04-.16.06-.03.01-.07.03-.1.05-.04.02-.09.04-.13.07-.03.02-.07.04-.1.06-.03.02-.06.04-.09.06,0,0,0,0,0,0Z"/>
  <path class="cls-3" d="M87.55,269.8l26.83-12.87c-.48.53-.93,1.07-1.37,1.62l-25.08,12.04c-.09-.27-.22-.54-.37-.78Z"/>
  <path class="cls-3" d="M86.05,273.87l.42.63c-.43.26-.93.42-1.44.47l-.05-.08,1.08-1.02Z"/>
  <path class="cls-3" d="M85,320.27v1.36c-.14-.02-.29-.03-.44-.03-.11,0-.21,0-.32.01l-.11-.12v-.46c.19-.16.49-.41.87-.76Z"/>
  <path class="cls-3" d="M84.14,321.5l.11.12s-.07,0-.11.01v-.14Z"/>
  <path class="cls-3" d="M74.16,299.04c.04-10.19,2.69-19.78,7.31-28.13-.11.52-.1,1.06.04,1.59.23.86.79,1.59,1.56,2.03.23.13.47.23.71.31-.54,1.06-1.04,2.15-1.5,3.25-2.87,6.79-4.33,14-4.33,21.44s1.46,14.65,4.33,21.44c.16.39.33.77.5,1.15-.72.45-1.23,1.14-1.45,1.97-.08.31-.12.62-.11.94-1.25-2.17-3.13-5.61-4.69-9.16,0,0,0,0,0,0,0,0,0,0,0,0-1.22-4.15-1.99-8.48-2.26-12.95"/>
  <path class="cls-3" d="M81.45,326.2c-3.11-5.1-4.43-8.76-4.8-9.93,0-.02-.01-.04-.02-.05,0-.02-.01-.03-.02-.05,0-.02-.01-.04-.02-.05-.01-.03-.02-.07-.03-.11,0,0,0-.02,0-.03,0-.03-.01-.05-.02-.07,0-.02,0-.03,0-.04,1.56,3.55,3.44,6.99,4.69,9.16h0c0,.4.09.79.24,1.17Z"/>
  <path class="cls-1" d="M76.53,315.86c-1.05-2.4-1.96-4.84-2.43-6.98l-.29.05c-.29-1.77-.49-3.56-.62-5.37.41-.13.78-.35,1.08-.65.27,4.47,1.04,8.81,2.26,12.95Z"/>
  <path class="cls-1" d="M74.16,300.29c0-.33,0-.66,0-.99,0-.09,0-.17,0-.26-.31-.28-.69-.48-1.11-.59,0,.28,0,.56,0,.85,0,.25,0,.5,0,.74.01,1.17.06,2.35.14,3.51h0c.41-.13.78-.35,1.08-.65-.05-.87-.09-1.74-.1-2.61Z"/>
  <path class="cls-2" d="M234.11,266.18v68.74h40.6v-9.69h-29.71v-59.05h-10.89ZM292.99,332.61c3.88,2.28,8.3,3.41,13.29,3.41,3.38,0,6.49-.52,9.32-1.57,2.89-1.11,5.35-2.58,7.38-4.43,2.09-1.91,3.63-4.03,4.61-6.37l-8.49-4.15c-1.23,2.15-2.92,3.91-5.07,5.26-2.09,1.35-4.65,2.03-7.66,2.03s-5.6-.71-7.94-2.12c-2.28-1.41-4.06-3.38-5.35-5.91-.85-1.73-1.33-3.67-1.45-5.81h37.15c.19-.74.31-1.54.37-2.4s.09-1.69.09-2.49c0-3.26-.55-6.34-1.66-9.23-1.05-2.89-2.58-5.44-4.61-7.66-2.03-2.28-4.52-4.06-7.47-5.35-2.95-1.29-6.31-1.94-10.06-1.94-4.68,0-8.86,1.14-12.55,3.41-3.69,2.21-6.64,5.26-8.86,9.13-2.15,3.88-3.23,8.33-3.23,13.38s1.08,9.38,3.23,13.38c2.15,3.94,5.14,7.07,8.95,9.41ZM291.89,304.66c.24-1.45.63-2.77,1.19-3.97,1.17-2.58,2.83-4.55,4.98-5.91,2.15-1.41,4.61-2.12,7.38-2.12s5.17.71,7.2,2.12c2.09,1.35,3.63,3.23,4.61,5.63.58,1.31.91,2.72.97,4.24h-26.34ZM350.31,332.61c4,2.28,8.4,3.41,13.19,3.41s9.16-1.11,13.1-3.32c3.94-2.28,7.07-5.38,9.41-9.32,2.34-3.94,3.51-8.43,3.51-13.47s-1.17-9.5-3.51-13.38c-2.28-3.94-5.38-7.01-9.32-9.23-3.88-2.28-8.27-3.41-13.19-3.41s-9.26,1.14-13.19,3.41c-3.94,2.21-7.07,5.29-9.41,9.23-2.34,3.88-3.51,8.34-3.51,13.38s1.17,9.44,3.51,13.38c2.34,3.94,5.47,7.04,9.41,9.32ZM371.35,324.22c-2.28,1.41-4.89,2.12-7.84,2.12s-5.51-.71-7.84-2.12c-2.28-1.41-4.09-3.35-5.45-5.81-1.29-2.52-1.94-5.35-1.94-8.49s.65-5.94,1.94-8.4c1.35-2.46,3.17-4.4,5.45-5.81,2.34-1.41,4.95-2.12,7.84-2.12s5.57.71,7.84,2.12c2.28,1.41,4.06,3.35,5.35,5.81,1.35,2.46,2.03,5.26,2.03,8.4s-.68,5.97-2.03,8.49c-1.29,2.46-3.08,4.4-5.35,5.81ZM399.7,285v49.92h10.43v-29.43c0-2.46.46-4.58,1.38-6.37.92-1.78,2.22-3.14,3.88-4.06,1.72-.98,3.66-1.48,5.81-1.48s4.06.49,5.72,1.48c1.72.92,3.04,2.28,3.97,4.06.92,1.72,1.38,3.84,1.38,6.37v29.43h10.33v-32.2c0-3.69-.8-6.95-2.4-9.78-1.6-2.83-3.81-5.04-6.64-6.64-2.83-1.6-6.09-2.4-9.78-2.4s-6.7.83-9.41,2.49c-1.95,1.15-3.52,2.71-4.71,4.66v-6.05h-9.96ZM459.76,334.27c2.58,1.17,5.57,1.75,8.95,1.75,2.83,0,5.38-.4,7.66-1.2,2.34-.8,4.4-1.94,6.18-3.41.88-.7,1.68-1.46,2.4-2.29v5.8h9.96v-33.59c0-3.44-.86-6.46-2.58-9.04-1.66-2.64-4.03-4.71-7.11-6.18-3.01-1.48-6.49-2.21-10.42-2.21-3.14,0-6.12.52-8.95,1.57-2.77,1.05-5.2,2.52-7.29,4.43-2.09,1.85-3.6,4-4.52,6.46l8.67,4.34c.98-2.28,2.49-4.12,4.52-5.54,2.09-1.48,4.52-2.21,7.29-2.21,3.01,0,5.41.8,7.2,2.4,1.85,1.54,2.77,3.54,2.77,6v1.9l-15.87,2.62c-3.81.62-6.98,1.66-9.5,3.14-2.52,1.48-4.4,3.29-5.63,5.44-1.17,2.15-1.75,4.58-1.75,7.29,0,2.89.71,5.41,2.12,7.57,1.41,2.09,3.38,3.75,5.91,4.98ZM484.49,311.46v2.69c0,2.52-.58,4.83-1.75,6.92-1.17,2.03-2.83,3.66-4.98,4.89-2.09,1.23-4.55,1.85-7.38,1.85-2.28,0-4.15-.58-5.63-1.75-1.42-1.23-2.12-2.8-2.12-4.71s.65-3.57,1.94-4.8c1.29-1.29,3.32-2.18,6.09-2.68l13.84-2.42ZM507.11,285v49.92h10.43v-28.79c0-3.94,1.04-6.95,3.14-9.04,2.15-2.15,4.95-3.23,8.4-3.23h4.34v-9.5h-3.05c-3.44,0-6.4.74-8.86,2.21-1.87,1.07-3.34,2.67-4.43,4.81v-6.38h-9.96ZM550.69,332.61c3.81,2.28,8.12,3.41,12.92,3.41,3.81,0,7.32-.8,10.52-2.4,2.52-1.26,4.58-2.96,6.18-5.09v6.38h9.87v-69.85h-10.33v25.73c-1.56-1.83-3.47-3.33-5.72-4.51-3.08-1.6-6.61-2.4-10.61-2.4-4.74,0-8.98,1.14-12.73,3.41-3.75,2.28-6.74,5.38-8.95,9.32-2.22,3.94-3.32,8.37-3.32,13.29s1.08,9.35,3.23,13.29c2.22,3.94,5.2,7.07,8.95,9.41ZM572.37,324.22c-2.28,1.41-4.86,2.12-7.75,2.12s-5.6-.71-7.94-2.12c-2.28-1.41-4.06-3.35-5.35-5.81-1.29-2.52-1.94-5.35-1.94-8.49s.65-5.94,1.94-8.4,3.11-4.4,5.44-5.81c2.34-1.41,4.95-2.12,7.84-2.12s5.47.71,7.75,2.12c2.34,1.41,4.15,3.35,5.44,5.81,1.36,2.46,2.03,5.26,2.03,8.4s-.67,5.97-2.03,8.49c-1.29,2.46-3.11,4.4-5.44,5.81ZM613.24,332.61c4,2.28,8.4,3.41,13.19,3.41s9.16-1.11,13.1-3.32c3.94-2.28,7.07-5.38,9.41-9.32,2.34-3.94,3.5-8.43,3.5-13.47s-1.17-9.5-3.5-13.38c-2.28-3.94-5.38-7.01-9.32-9.23-3.88-2.28-8.28-3.41-13.19-3.41s-9.26,1.14-13.19,3.41c-3.94,2.21-7.07,5.29-9.41,9.23-2.34,3.88-3.5,8.34-3.5,13.38s1.17,9.44,3.5,13.38c2.34,3.94,5.47,7.04,9.41,9.32ZM634.28,324.22c-2.28,1.41-4.89,2.12-7.84,2.12s-5.51-.71-7.84-2.12c-2.28-1.41-4.09-3.35-5.45-5.81-1.29-2.52-1.94-5.35-1.94-8.49s.65-5.94,1.94-8.4c1.35-2.46,3.17-4.4,5.45-5.81,2.34-1.41,4.95-2.12,7.84-2.12s5.57.71,7.84,2.12c2.28,1.41,4.06,3.35,5.35,5.81,1.35,2.46,2.03,5.26,2.03,8.4s-.68,5.97-2.03,8.49c-1.29,2.46-3.08,4.4-5.35,5.81ZM667.25,322.92v11.99h10.61v-11.99h-10.61ZM713.72,266.18l-24.17,68.74h11.63l5.35-15.41h27.96l5.26,15.41h11.63l-24.17-68.74h-13.47ZM731.16,309.82h-21.5l10.83-31.52,10.67,31.52ZM758.5,285v49.92h10.43v-49.92h-10.43ZM758.5,266.18v11.99h10.43v-11.99h-10.43Z"/>
</svg>